<svg version="1.1" xmlns="http://www.w3.org/2000/svg" viewBox="0 0 1144 730">
<path d="M0 0 C1.48 -0 2.96 -0.01 4.43 -0.01 C8.47 -0.03 12.51 -0.02 16.55 -0.01 C20.95 -0 25.35 -0.02 29.75 -0.02 C37.46 -0.04 45.17 -0.04 52.88 -0.03 C64.34 -0.02 75.8 -0.03 87.26 -0.04 C107.74 -0.06 128.21 -0.06 148.68 -0.06 C166.6 -0.05 184.52 -0.05 202.44 -0.06 C204.84 -0.06 207.24 -0.06 209.65 -0.06 C213.27 -0.06 216.89 -0.06 220.52 -0.07 C254.2 -0.08 287.87 -0.08 321.55 -0.07 C322.82 -0.07 324.09 -0.07 325.4 -0.07 C335.71 -0.07 346.02 -0.07 356.32 -0.06 C396.53 -0.05 436.74 -0.06 476.95 -0.09 C522.13 -0.11 567.31 -0.13 612.5 -0.12 C617.31 -0.12 622.13 -0.12 626.95 -0.12 C628.14 -0.12 629.32 -0.12 630.54 -0.12 C648.45 -0.11 666.35 -0.12 684.26 -0.13 C704.62 -0.15 724.98 -0.15 745.34 -0.13 C756.74 -0.12 768.13 -0.12 779.52 -0.14 C787.13 -0.15 794.75 -0.15 802.36 -0.13 C806.7 -0.12 811.03 -0.12 815.37 -0.14 C848.43 -0.25 848.43 -0.25 861.89 4.38 C862.54 4.6 863.19 4.82 863.86 5.04 C889.65 13.83 909.71 32.09 921.98 56.39 C924.93 62.8 927.04 69.59 928.89 76.38 C929.07 77.03 929.26 77.68 929.44 78.35 C931.51 87.06 931.18 95.93 931.17 104.82 C931.17 106.7 931.18 108.59 931.18 110.47 C931.2 115.63 931.2 120.78 931.2 125.94 C931.2 131.51 931.21 137.08 931.23 142.64 C931.25 154.81 931.26 166.98 931.26 179.15 C931.26 186.76 931.27 194.37 931.28 201.97 C931.3 223.05 931.31 244.13 931.32 265.21 C931.32 265.55 931.32 265.55 931.32 267.25 C931.32 269.98 931.32 272.71 931.32 275.44 C931.32 277.5 931.32 279.55 931.32 281.6 C931.32 282.28 931.32 282.96 931.32 283.66 C931.32 304.97 931.34 326.28 931.38 347.59 C931.42 371.56 931.45 395.53 931.45 419.5 C931.45 432.18 931.45 444.86 931.48 457.54 C931.51 468.34 931.52 479.14 931.5 489.94 C931.49 495.45 931.49 500.95 931.52 506.45 C931.68 548.75 931.68 548.75 925.89 566.38 C925.5 567.69 925.11 568.99 924.73 570.3 C923.79 573.41 922.75 576.45 921.64 579.51 C921.26 580.59 920.87 581.68 920.48 582.8 C916.82 592.93 912.58 602.69 907.89 612.38 C907.44 613.33 906.99 614.27 906.52 615.25 C891.66 646.2 873.47 674.36 849.89 699.38 C849.15 700.17 848.41 700.97 847.65 701.79 C832.91 717.12 813.78 729.88 792.02 730.69 C786.49 730.62 782.23 729.97 777.89 726.38 C772.09 719.56 771.76 712.43 771.68 703.83 C771.65 702.14 771.63 700.46 771.6 698.77 C771.56 696.15 771.52 693.54 771.49 690.92 C771.27 671.15 769.78 651.45 755.24 636.4 C727.26 612.25 685.12 615.22 650.57 615.25 C646.43 615.25 642.3 615.25 638.16 615.24 C630.93 615.24 623.69 615.24 616.46 615.24 C605.7 615.24 594.94 615.24 584.18 615.23 C567.19 615.22 550.19 615.22 533.2 615.21 C506.22 615.21 479.24 615.19 452.27 615.17 C446.52 615.17 440.77 615.16 435.03 615.16 C433.88 615.16 432.74 615.16 431.55 615.16 C429.23 615.16 426.91 615.16 424.59 615.15 C422.26 615.15 419.93 615.15 417.6 615.15 C390.15 615.13 362.7 615.11 335.25 615.1 C334.05 615.1 332.85 615.1 331.62 615.1 C292.67 615.07 253.72 615.06 214.77 615.05 C174.69 615.05 134.62 615.02 94.55 614.99 C88.89 614.98 83.23 614.98 77.57 614.97 C76.46 614.97 75.34 614.97 74.19 614.97 C56.28 614.96 38.37 614.95 20.45 614.96 C2.45 614.96 -15.55 614.95 -33.55 614.93 C-44.24 614.91 -54.93 614.91 -65.62 614.92 C-72.77 614.93 -79.92 614.93 -87.06 614.91 C-91.13 614.9 -95.2 614.89 -99.27 614.91 C-130.36 615 -130.36 615 -144.11 610.38 C-144.76 610.16 -145.41 609.94 -146.08 609.72 C-171.87 600.93 -191.93 582.67 -204.19 558.37 C-210.63 544.39 -213.41 530.16 -213.37 514.84 C-213.38 513.49 -213.38 512.14 -213.39 510.79 C-213.4 507.11 -213.4 503.42 -213.4 499.74 C-213.4 495.76 -213.41 491.77 -213.42 487.79 C-213.43 479.99 -213.44 472.2 -213.44 464.4 C-213.44 458.06 -213.45 451.72 -213.45 445.38 C-213.47 427.37 -213.48 409.37 -213.48 391.36 C-213.48 390.39 -213.48 389.42 -213.48 388.42 C-213.48 387.45 -213.48 386.48 -213.48 385.48 C-213.48 369.76 -213.49 354.04 -213.52 338.32 C-213.55 322.15 -213.57 305.98 -213.56 289.82 C-213.56 280.75 -213.57 271.68 -213.59 262.62 C-213.61 254.89 -213.61 247.17 -213.6 239.45 C-213.59 235.52 -213.59 231.58 -213.61 227.65 C-213.74 196 -208.43 168.37 -185.62 144.81 C-183.99 143.19 -182.35 141.59 -180.7 140 C-178.7 137.99 -176.88 135.97 -175.05 133.82 C-170.74 128.89 -166.13 124.3 -161.48 119.69 C-160.58 118.79 -159.67 117.89 -158.74 116.96 C-155.38 113.61 -152.01 110.27 -148.65 106.93 C-145.34 103.65 -142.04 100.36 -138.73 97.07 C-137.87 96.22 -137.01 95.36 -136.12 94.49 C-131.88 90.25 -127.81 85.95 -123.91 81.41 C-120.35 77.4 -116.5 73.68 -112.7 69.91 C-112.26 69.47 -112.26 69.47 -110.02 67.25 C-106.75 63.98 -103.47 60.73 -100.18 57.47 C-96.96 54.27 -93.73 51.06 -90.51 47.85 C-89.67 47.02 -88.83 46.19 -87.97 45.33 C-83.66 41.04 -79.5 36.68 -75.55 32.05 C-56.7 10.21 -28.25 -0.15 0 0 Z " fill="#6239FF" transform="translate(213.10612201690674,-0.38031673431396484)"/>
<path d="M0 0 C40.59 0 81.18 0 123 0 C123 72.6 123 145.2 123 220 C82.41 220 41.82 220 0 220 C0 147.4 0 74.8 0 0 Z " fill="#FFFFFF" transform="translate(544,252)"/>
<path d="M0 0 C22.17 18.92 28.28 48.92 30.94 76.61 C31.54 84.53 31.54 92.46 31.53 100.4 C31.53 101.19 31.53 101.99 31.53 102.81 C31.5 115.29 31.17 127.6 29.34 139.96 C29.22 140.82 29.09 141.68 28.97 142.57 C27.04 155.42 23.7 167.13 18.34 178.96 C17.88 180 17.42 181.03 16.94 182.1 C10 196.14 -2.82 207.85 -17.66 212.96 C-33.12 217.64 -49.54 215.39 -63.65 207.87 C-84.06 194.95 -92.33 173.42 -97.68 150.84 C-106.92 108.8 -106.47 51.56 -82.66 13.96 C-74.83 2.42 -63.22 -7.2 -49.29 -10.23 C-31.83 -13.36 -14.27 -10.94 0 0 Z " fill="#FFFFFF" transform="translate(192.66015625,260.0390625)"/>
<path d="M0 0 C62.7 0 125.4 0 190 0 C190 33 190 66 190 100 C127.3 100 64.6 100 0 100 C0 67 0 34 0 0 Z " fill="#FFFFFF" transform="translate(326,383)"/>
<path d="M0 0 C14.19 0 28.38 0 43 0 C43 59.07 43 118.14 43 179 C112.47 177.84 112.47 177.84 142 168 C142 182.19 142 196.38 142 211 C94.77 229.89 56.14 222 0 222 C0 148.74 0 75.48 0 0 Z " fill="#FFFFFF" transform="translate(773,250)"/>
<path d="M0 0 C13.86 0 27.72 0 42 0 C42 28.71 42 57.42 42 87 C50.25 87 58.5 87 67 87 C67 101.85 67 116.7 67 132 C58.75 132 50.5 132 42 132 C42 166.65 42 201.3 42 237 C28.14 237 14.28 237 0 237 C0 158.79 0 80.58 0 0 Z " fill="#FFFFFF" transform="translate(694,246)"/>
<path d="M0 0 C13.86 0 27.72 0 42 0 C42 78.21 42 156.42 42 237 C28.14 237 14.28 237 0 237 C0 158.79 0 80.58 0 0 Z " fill="#FFFFFF" transform="translate(926,246)"/>
<path d="M0 0 C13.86 0 27.72 0 42 0 C42 78.21 42 156.42 42 237 C28.14 237 14.28 237 0 237 C0 158.79 0 80.58 0 0 Z " fill="#FFFFFF" transform="translate(248,246)"/>
<path d="M0 0 C4.7 0.26 9.39 0.53 14.09 0.8 C15.68 0.89 17.28 0.98 18.87 1.07 C21.17 1.2 23.48 1.33 25.78 1.46 C26.13 1.48 26.13 1.48 27.91 1.58 C32.64 1.86 37.3 2.37 42 3 C42.68 18.59 40.12 33.29 35 48 C35.56 48.27 36.12 48.53 36.7 48.8 C56.9 59.3 75.38 74.95 94 88 C89.8 96.03 85.13 103.63 80.12 111.19 C79.78 111.71 79.78 111.71 78.04 114.36 C76.36 116.91 74.68 119.46 73 122 C70.34 120.73 67.93 119.34 65.52 117.64 C64.86 117.17 64.2 116.7 63.52 116.22 C62.81 115.71 62.1 115.21 61.38 114.69 C60.63 114.16 59.89 113.63 59.12 113.08 C53.69 109.22 48.28 105.33 42.88 101.44 C42.13 100.9 41.39 100.37 40.63 99.82 C36.93 97.15 33.27 94.46 29.64 91.7 C29.29 91.44 29.29 91.44 27.55 90.13 C26.26 89.15 24.96 88.16 23.68 87.16 C22.18 86.03 20.59 85 19 84 C15.22 85.26 14.35 86.85 11.94 90 C-3.05 108.65 -25.04 122.19 -49 125 C-51.64 125 -54.28 125 -57 125 C-57 111.14 -57 97.28 -57 83 C-53.04 82.01 -49.08 81.02 -45 80 C-28.17 73.92 -16.98 60.07 -9.41 44.34 C-4.19 32.02 -1.44 19.46 -0.45 6.14 C-0.41 5.56 -0.41 5.56 -0.19 2.64 C-0.13 1.77 -0.07 0.9 0 0 Z " fill="#FFFFFF" transform="translate(371,247)"/>
<path d="M0 0 C7.5 4.89 11.24 14.21 13.38 22.56 C14.65 29.19 15.54 35.87 16.38 42.56 C16.47 43.24 16.57 43.92 16.67 44.63 C17.67 52.17 17.57 59.77 17.56 67.38 C17.56 67.74 17.56 67.74 17.56 69.59 C17.45 117.35 17.45 117.35 4.59 132.69 C0.67 136.55 -2.82 138.64 -8.39 138.83 C-13.88 138.18 -17.53 135.66 -21.38 131.81 C-25.59 125.73 -28.22 119.66 -29.75 112.44 C-29.91 111.67 -30.08 110.89 -30.25 110.1 C-36.66 78.26 -38.35 36.73 -23.29 6.98 C-17.71 -1.14 -8.99 -3.57 0 0 Z " fill="#6239FF" transform="translate(165.625,293.4375)"/>
<path d="M0 0 C13.86 0 27.72 0 42 0 C42 42.24 42 84.48 42 128 C28.14 128 14.28 128 0 128 C0 85.76 0 43.52 0 0 Z " fill="#FFFFFF" transform="translate(474,246)"/>
<path d="M0 0 C13.2 0 26.4 0 40 0 C40 43.89 40 87.78 40 133 C26.8 133 13.6 133 0 133 C0 89.11 0 45.22 0 0 Z " fill="#6239FF" transform="translate(586,295)"/>
<path d="M0 0 C34.98 0 69.96 0 106 0 C106 7.59 106 15.18 106 23 C71.02 23 36.04 23 0 23 C0 15.41 0 7.82 0 0 Z " fill="#6239FF" transform="translate(368,421)"/>
</svg>
