<svg xmlns="http://www.w3.org/2000/svg" viewBox="0 0 1183.5554 1015.8372" width="1183.5554" height="1015.8372" role="img" aria-label="호주 지도"><g fill="#ededed" stroke="#c4c4c4" stroke-width="1" stroke-linejoin="round"><path d="M427 131l2 0 2 -1 2 -2 1 -1 2 -1 1 3 1 -1 2 0 0 2 -1 2 -2 -1 0 2 1 1 1 3 -1 1 -1 3 -2 1 -2 3 -1 2 -2 1 -1 2 -2 1 -3 1 -2 0 -2 1 -1 1 -1 0 -2 2 -2 0 -3 0 -1 -1 -1 -2 2 -1 3 -2 -1 -1 -2 0 0 -2 2 -2 -1 -2 1 -2 1 -2 2 -1 1 -2 1 -1 1 -1 2 2 2 -1 1 1 1 1 0 -2 2 -2 0 -2z"/><path d="M299 -149l-4 0 1 2 2 1 2 2 1 1 -2 -1 2 1 2 2 1 1 -1 2 -3 1 -2 -1 0 -2 0 3 -4 -1 -4 0 -1 1 2 0 1 1 2 2 1 0 2 1 -1 2 -1 1 -2 1 2 1 2 1 1 1 2 0 -1 2 2 0 -3 1 2 1 2 0 -2 1 2 1 1 1 1 3 3 3 0 2 2 1 -1 2 -2 1 0 1 -2 0 0 2 -2 0 2 1 0 2 2 1 1 1 2 3 3 2 2 0 0 2 1 1 2 1 3 2 1 1 1 1 1 2 2 0 1 2 -2 2 -1 0 -1 2 -2 -1 -2 0 -2 0 -2 1 -1 -1 -3 -1 -1 0 -1 -1 -1 -2 -1 -2 0 3 1 2 1 1 -3 0 -2 1 -1 1 0 2 -1 2 -1 1 -1 2 -1 2 -1 3 0 2 1 1 -1 2 0 2 0 2 1 2 -1 2 2 -1 0 2 -1 2 0 2 2 1 -2 2 -1 1 -3 0 0 -1 -1 2 -2 1 -1 3 -1 2 -3 1 -1 -1 -1 -2 0 2 0 1 -1 2 -2 1 -1 2 0 1 -1 2 -1 0 -2 1 -1 1 1 1 2 1 0 3 0 2 -2 0 -1 2 2 -1 1 2 3 -1 -1 4 0 3 -1 1 -2 -1 -1 1 1 1 0 5 -1 2 -1 1 -1 -1 -1 -1 -1 1 1 2 1 2 -1 1 0 2 -2 1 -1 2 0 3 -1 1 -2 1 -2 1 -3 2 -5 2 -5 2 -3 2 -3 2 -2 -1 0 -2 0 -2 0 -5 -2 -3 0 -2 1 -2 -2 3 -2 -1 -1 -1 0 -3 1 -1 -1 2 -2 1 -2 0 1 -3 -1 2 -1 1 -2 1 -2 1 -2 0 -2 -2 1 -1 -1 -3 -2 0 -1 1 -1 1 -1 -2 -2 0 -1 -2 -3 -3 0 2 -1 1 1 2 -6 5 -2 0 -4 -1 -1 -1 -2 0 -2 1 -2 3 -2 1 -2 -1 1 -3 0 -4 0 -2 -1 -4 -1 -2 -1 2 0 2 -2 1 -2 -2 -2 0 -5 3 -3 0 -2 -1 0 -1 3 -2 -3 1 -2 3 -1 -2 -1 -1 -1 -1 -3 1 -2 1 -1 -1 0 -2 0 -3 -1 -1 0 -2 2 -1 -2 -1 -1 -3 0 -2 0 -2 0 -3 -2 -1 -1 -1 -1 -2 1 -1 1 -2 1 -4 0 -3 -2 -1 -1 -1 0 -2 -2 -1 0 -1 -1 -2 -2 1 -1 -2 -2 -1 -2 2 -2 -1 0 -4 2 0 2 1 -2 -2 -2 -1 -1 -1 -2 -3 0 -2 -1 -2 2 0 1 -3 -1 -2 3 0 -1 -1 -2 -1 -1 -3 -1 0 -2 -1 0 -1 -1 -3 1 -2 -1 -2 -1 -2 1 -2 1 -1 0 -4 1 -1 2 -1 2 -2 -1 1 -3 1 1 -2 0 -4 4 -3 1 -2 0 -2 2 -2 3 -1 1 -2 -1 2 -1 1 0 3 2 0 0 2 0 2 2 2 1 2 3 2 1 1 1 2 2 0 2 3 1 1 2 1 1 2 2 -1 2 0 2 -1 1 -1 2 -1 4 -1 3 1 2 0 1 1 2 -1 2 1 3 -3 3 0 2 -4 0 -2 3 -2 2 -1 6 0 2 -1 3 1 0 2 1 1 2 0 2 1 2 1 2 0 2 2 4 -3 1 -1 3 -1 2 1 4 -2 3 1 1 0 1 -3 1 -2 0 -2 2 -2 1 -1 0 -2 -1 -1 0 -3 2 -1 1 -2 2 -1 1 -1 2 -1 -1 -2 -2 -1 1 -2 0 -2 2 -3 1 0 3 -1 1 -1 1 -2 0 -4 1 -1 0 -3 -1 -1 0 -2 1 -3 -1 -2 1 -1 1 -3 1 -1 1 -1 1 -1 1 -2 2 0 1 2 1 -1 2 -1 2 0 2 2 2 -1 1 0 3 -1 2 1 2 -1 4 1 2 0 2 1 1 2 2 0z"/><path d="M735 -7l0 4 0 4 0 6 0 7 0 4 0 4 0 4 0 9 0 4 0 4 0 4 0 3 0 6 0 4 0 4 0 5 0 2 -1 2 0 2 -1 2 0 2 1 2 1 2 0 2 0 4 0 2 0 7 0 3 0 4 0 5 0 5 0 4 0 4 0 4 0 2 -2 -1 -4 -5 -2 -3 -1 -1 -2 -2 -1 -1 -5 -5 -1 -2 1 -1 0 -2 1 -1 1 -1 -1 1 -1 2 -1 1 -4 1 -3 0 -1 1 -2 0 -2 0 -2 -1 0 -2 -2 2 -3 2 -1 1 -1 -1 0 -2 1 -1 0 -3 2 -2 0 -3 1 -2 -1 -2 -2 -1 -1 -2 -2 -2 -1 -1 4 -1 1 1 4 0 1 -1 -2 1 -3 -1 -2 -1 -2 0 -2 -3 -1 -1 1 -1 2 0 2 -1 3 1 2 1 -2 -2 -3 0 -2 -2 -2 -1 3 0 -2 -1 -1 -2 -3 -3 -1 -2 -1 -3 0 -2 -2 -3 1 -1 -2 -1 1 -3 2 0 -3 0 -2 1 -1 -2 1 -2 -1 -2 -1 0 -2 -2 -2 0 -1 -2 -1 -1 -2 -1 -2 -1 -2 -1 -1 -2 -3 0 -1 -1 -3 0 -2 0 -1 -1 -3 -1 -1 -1 -2 -1 -1 -1 -2 0 -2 -1 -2 -1 -2 -2 -3 0 -2 0 -2 -1 -2 0 -2 0 -2 0 -6 -3 -1 -1 -3 -1 -1 -2 0 -2 1 -2 2 0 2 0 -2 0 -3 0 -1 1 -2 1 -1 -1 -1 -2 -2 1 -2 0 0 -2 -1 -2 -1 2 -2 0 -1 -2 -1 -2 -2 0 -1 -1 -1 -2 1 -2 -1 -2 1 -2 1 -2 2 -1 0 -2 -1 -1 -2 3 -1 1 0 5 -2 2 1 2 -1 1 -3 3 1 2 -1 2 -2 2 -2 1 -3 0 -1 1 -1 -2 -1 -1 -1 -3 -1 -3 1 -1 2 -1 0 -1 -1 -2 -1 -3 -1 -1 -1 2 -1 -2 -1 -2 -1 -1 -1 -1 -2 -2 -2 -1 -2 0 -2 0 -1 -2 -1 -1 3 -1 1 0 3 -1 2 0 3 0 2 2 3 -1 1 -2 1 -1 1 -2 2 -1 2 -1 2 2 1 1 0 2 0 -2 1 2 1 -2 2 0 1 2 1 -3 1 2 1 -2 -1 -1 2 0 2 -1 -2 -1 2 -2 -2 1 -1 -2 1 -1 1 -1 -2 0 -1 1 -2 1 -2 0 -3 0 -2 0 -2 0 -2 1 -2 0 -2 0 -3 1 -1 -1 -2 -2 -1 1 -2 1 -2 -1 -4 -2 1 -2 -2 -1 -1 -2 0 -2 1 -2 -2 0 1 -2 1 -1 -2 0 -1 1 -2 0 -1 -2 -2 0 -2 -1 -1 0 -2 -2 1 2 -2 1 -2 -1 -3 0 1 -3 1 -2 2 0 1 -2 0 -2 1 -2 -1 -2 2 -1 1 -1 2 0 5 0 2 -1 1 -2 2 -1 2 -2 1 -1 3 -1 6 0 4 2 2 1 2 1 3 2 2 2 3 0 4 0 3 0 2 1 2 1 -1 2 0 2 1 3 1 1 1 2 0 2 -1 3 -1 2 -1 1 1 5 0 2 0 2 0 2 0 2 1 1 1 2 1 1 1 2 1 3 1 1 1 1 0 -2 -1 -2 1 -3 2 0 1 1 0 6 0 3 3 -1 0 2 0 1 1 3 0 1 2 1 2 1 3 0 2 1 2 -1 2 -1 0 -2 2 -1 1 -2 2 -1 1 -1 1 -3 1 -2 1 -1 2 -1 2 -2 0 -2 1 -1 0 -2 1 -2 2 -1 2 2 2 -1 3 -1 1 -1 4 0 2 -1 -1 -2 -2 -2 5 -4 2 -1 1 -1 5 -2 3 0 1 1 1 1 3 1 3 1 3 1 2 1 2 1 1 2 2 1 4 1 3 2 2 1 2 1 3 2 2 1 5 0 3 1 2 1 3 0 3 0 2 1 -1 2 3 0 2 0z"/><path d="M221 116l-2 1 1 -1 1 0z"/><path d="M403 115l-2 2 -2 2 0 -2 1 -1 3 -1z"/><path d="M498 112l-2 0 -1 -1 2 -1 1 1z"/><path d="M513 111l-2 0 -2 0 3 -1 1 1z"/><path d="M489 110l-1 1 -2 0 2 -2z"/><path d="M301 109l-1 2 -1 3 -1 -1 -1 -2 2 -2 2 0z"/><path d="M479 107l-1 1 0 -1z"/><path d="M551 98l-1 2 1 -1z"/><path d="M549 96l-2 1 2 -1z"/><path d="M553 94l-1 1 -3 0 1 -1 2 0z"/><path d="M362 91l2 1 -1 0 -2 0 -2 -1 3 0z"/><path d="M358 87l-1 1 -1 -1 0 -2 2 2z"/><path d="M694 81l0 2 -2 -2 -1 -1 3 0z"/><path d="M561 79l-1 1 0 -1z"/><path d="M619 77l0 2 -1 2 -1 -2 1 -2z"/><path d="M617 73l-1 1 -2 -1 -2 -1 1 -2 2 1 1 1 1 1z"/><path d="M621 70l0 2 0 2 -1 -2 1 -1z"/><path d="M612 70l0 1 -2 -2 -1 -1 -1 -1 0 -2 2 1 0 1 2 2 0 1z"/><path d="M156 103l-2 0 -3 -1 -3 -1 -1 0 -4 -1 -3 0 -2 0 -1 -1 -2 0 -2 1 -2 0 -1 1 -1 1 -2 0 -4 0 -3 -1 -3 0 -2 -2 -2 -1 -1 -1 -2 -1 -3 0 -2 -1 -6 -1 -5 0 -2 -1 -1 -1 -1 -2 2 -1 1 -2 0 -2 -2 0 -1 0 -2 -1 -2 0 -2 -2 -2 -1 -1 1 -2 0 -3 0 -2 0 -3 -1 -2 1 1 -2 1 -1 1 1 1 1 1 -1 2 -2 0 -3 1 -1 1 1 2 -1 0 -5 1 -2 1 -3 1 -1 2 -1 0 2 2 0 2 -1 1 1 2 1 4 -1 1 2 1 1 4 -1 0 -3 2 0 1 1 2 -1 2 1 1 3 1 1 2 0 2 1 2 0 1 -1 1 2 2 1 3 0 1 -1 2 -1 0 2 2 3 2 1 0 3 1 2 2 1 2 0 1 1 2 -1 2 1 1 0 4 1 2 -2 5 1 3 2 4 -1 1 -1 2 2 1 0 2 0 2 -1 0 -1 2 -3 0 -2 0 -2 2 -2 3 0 1 0 2 2 1 3 4 1 2 0 1 -1 2 0 1 1 1 2 2 0 2 0 1 0 1 2 3 0 2 0 3 0 2 0 0 2 1 1 0 2 -1 1 2 2 1 -2 1 2 0 2 -1 3 2 2 2 1 3 1 1 1 2 1 2 -1 1 0 4 -1 2 0 1 0 2 -1 2 -1 2 2 2 0 1 1 3 1 0 2 0 3 -1 3 -1 4 0 2 1 1 0 -1 0 2 1 1 2 1 1 2 -1 1 -2 -1 -1 -1 -1 -1 -2 -1 -2 0 -2 0 -2 -1 -2 0 -1 -1 -2 0 -1 -1 -2 -1 -2 -1 -1 -1 -2 -1 -3 0 -2 1 0 1 -3 1 -2 0 -2 0 -3 -1 -1 -1 -2 0 -4 0 -3 -1 -1 0 -2 0 -1 2 -1 -1 -3 0 -2 -1 -3 0 -2 -1 -1 1 -2 -1 -4 -1 -1 0 -2 -1 -3 -1 -1 -1 -6 -3 -2 -1z"/><path d="M420 64l-2 -1 2 0z"/><path d="M415 54l0 2 -1 -1 -1 -2 1 1z"/><path d="M410 49l2 0 0 2 -2 -2z"/><path d="M479 19l0 2 -1 -1 1 -2 0 1z"/><path d="M581 11l-1 -1 1 1z"/><path d="M486 8l-2 0 1 -1 1 1z"/><path d="M489 5l0 2 -2 -1 2 -1z"/><path d="M493 0l0 2 -3 0 2 -1 0 -1z"/><path d="M341 -43l1 -2 -1 -2 -1 -2 0 -2 0 -5 1 -2 -2 -1 -1 -1 0 -2 1 1 1 1 2 -1 0 -1 -2 -4 2 -1 0 -3 1 -2 2 -1 0 -2 0 -2 3 -1 1 -3 1 -1 1 1 0 2 2 1 3 -1 1 -3 1 -1 1 -1 0 -2 1 -2 1 -1 3 0 2 1 2 1 2 -1 2 -1 -1 2 2 3 2 0 5 0 1 1 2 -1 1 1 2 0 3 0 2 1 2 0 2 2 1 0 2 1 1 -1 1 -2 2 1 1 0 2 0 2 0 2 1 2 0 2 1 3 0 2 -1 3 -1 1 -1 2 -1 1 -2 1 -1 3 -1 1 -1 -1 -1 1 -2 3 0 1 -1 0 -2 2 -2 2 -2 1 1 2 1 1 2 -1 2 -1 2 -2 4 -1 2 -1 1 -1 2 -1 1 -2 1 -1 1 -1 2 -1 1 -1 2 0 2 -2 1 -3 1 -3 0 -2 1 -2 0 -2 0 -2 1 -3 -1 -3 0 -2 -1 -1 -2 -2 -1 -4 0 -3 0 -2 0 -4 0 -3 0 -2 0 -1 1 -2 0 -3 -1 -3 -1 -2 1 -2 1 -2 -1 -2 1 -1 1 -2 -1 -2 1 -2 -1 -2 -1 -3 -1 -2 1 -1 1 -2 2 -1 1 -1 2 0 2 -1 1 -1 2 0 2 -1 2 1 3 0 2 1 3 3 6 2 1 2 1 1 1 1 2 0 2 1 1 1 3 2 -1 1 1 3 0 1 0 2 -2 0 -2 1 -1 1 -1 2 -2 1 -2 1 -1 2 -1 1 1 3 1 2 1 2 -1 2 0 1 -2 4 -2 3 1 2 0 2 0 3 0 -3 -2 1 -1 2 -1 2 -1 4 1 2 1 1 1 1 1 -1 3 -1 2 -1 2 -2 -2 -1 -1 -1 -2 -2 1 -2 1 -2 2 -1 2 -1 1 -1 1 -2 2 -2 3 -2 2 -1 1 -2 0 -3 1 -2 1 -1 1 -1 2 -2 2 -2 0 -2 -1 -1 -2 -1 1 0 3 1 -1 1 1 1 1 1 2 1 1 3 1 1 1 1 2 1 2 1 2 1 2 1 2 1 1 1 1 2 1 0 2 2 3 1 1 -1 1 -2 2 1 1 -2 1 1 1 -1 2 1 2 2 2 1 1 1 2 2 0 0 2 1 1 0 2 2 0 1 -2 1 1 0 3 0 2 0 2 -2 -1 -2 -1 1 1 1 2 -2 1 -1 -2 -2 1 -2 0 -2 0 -2 1 -1 0 -1 2 -1 1 1 2 0 2 -4 0 -1 0 -3 -1 -2 -1 -1 -1 0 -2 0 -2 1 -2 0 -3 1 -1 0 -1 0 -3 -3 -1 -2 -1 -1 -1 -1 -2 -2 -1 -4 -4 -1 -2 1 -1 1 -3 1 -1 1 -2 0 -2 0 -1 0 -2 0 -1 0 -3 -3 -1 -2 -1 -1 1 -2 1 -1 0 -5 4 -2 2 1 1 0 2 1 1 1 1 1 2 0 3 0 2 0 2 0 3 -1 1 0 2 0 3 0 3 0 2 0 2 1 2 0 2 0 2 0 2 -1 1 -1 3 0 3 0 2 1 2 1 4 1 2 -2 -1 -1 -1 -2 1 -2 1 -2 -1 -2 1 -1 2 -3 0 -1 -2 -2 -1 -2 0 0 -3 -1 -1 1 -3 0 -2 1 -1 1 -3 0 -4 1 -2 1 -1 0 -4 0 -2 0 -2 0 -2 1 -3 -2 -1 -1 -2 0 -2 -1 -2 1 -1 -1 -3 -2 -1 -2 1 -2 1 -2 0 -1 1 -2 -2 0 -2 0 -2 -1 -2 -1 -1 2 -3 0 -2 -2 0 0 -2 1 -3 2 0 2 -1 1 -2 1 -1 0 -4 1 -2 1 -3 1 -1 1 -3 0 -1 -1 -2 1 -2 -1 -2 0 -2 0 -3 2 -2 1 -1 0 -2 1 -2 1 -2 1 -1 2 -2 1 2 1 2z"/><path d="M-11 -100l-1 -2 0 -2 -1 -2 -1 -2 1 -1 4 0 2 3 3 2 0 2 0 2 1 1 2 2 3 1 7 4 2 1 0 2 1 2 0 2 1 3 2 1 1 3 2 1 3 0 2 0 3 1 2 3 1 2 -1 1 -2 0 -1 2 -3 1 -1 0 -1 2 -2 -1 1 1 2 -1 1 0 2 -1 3 -1 1 -1 2 -1 1 -1 1 -1 2 -1 2 1 1 1 1 2 2 1 1 1 1 5 -2 1 -2 0 -1 2 -2 2 -2 1 3 -1 -1 3 -1 0 2 0 2 1 -1 2 -2 0 -1 -1 1 2 -1 2 1 2 1 1 2 2 1 1 2 1 1 1 3 -1 1 1 2 0 1 1 3 -1 2 2 -1 2 1 2 0 5 1 1 1 2 0 2 -1 2 2 0 0 3 2 0 1 -1 2 1 0 2 -1 3 -1 1 -3 2 2 0 0 2 0 2 -2 1 -1 2 2 -2 2 -2 0 -3 1 -1 1 -2 1 2 2 0 2 0 2 0 3 0 1 1 3 0 0 2 0 3 2 1 1 1 0 3 1 1 2 1 2 1 0 2 1 3 -2 1 -1 1 -1 2 -1 5 0 1 2 1 0 3 -1 1 -1 3 0 2 0 2 0 2 1 2 0 2 0 4 0 2 0 3 0 2 0 3 -1 1 0 3 0 3 0 2 -1 2 -1 2 -1 -1 -2 -3 -1 -1 -2 -1 -2 -3 -1 1 -1 1 0 2 0 2 -2 0 -3 -2 -2 -1 -2 -2 -2 -1 -1 1 3 6 0 3 -3 0 0 -2 -1 -1 -2 -2 -2 -1 0 -2 -2 -1 -1 -1 -1 -2 -1 -2 -1 -1 -1 -2 -1 -1 -2 -1 -1 -2 -2 -1 -1 0 -2 -2 -2 0 -3 -4 -2 -1 -2 -1 -4 -5 -4 -2 -3 -3 -1 -2 0 -2 -1 -1 0 -2 -3 -3 -4 -3 -4 -3 -1 -2 -3 -5 -2 -4 -1 -1 -2 -1 -1 -1 -2 -3 -2 -3 -1 -3 1 -2 -1 -3 0 -1 -1 -1 -1 -3 -1 -1 -1 -2 -1 -2 0 -2 -1 -1 -2 -1 -1 -2 0 -2 0 -2 -1 -2 -3 -4 -1 -3 -1 -1 -2 -2 -2 -1 0 -2 -1 -2 0 -2 -2 -2 -1 -1 -1 -1 -2 -1 -2 -1 -2 0 -2 -1 0 -2 0 -3 0 -2 -2 -1 0 -2 0 -2 -1 -2 -1 -4 -1 -3 -1 -3 -1 -2 -1 -1 2 -1 0 -1 0 -2 -1 -1 -3 -2 -3 -2 -2 -1 -1 -1 -2 -2 -1 0 -2 -1 -2 -1 -2 0 -2 -2 0 -1 0 -2 -1 -3 0 -4 -2 -1 -1 -1 -3 -2 0 -3 -2 -1 -3 -6 -2 -2 -2 -2 -1 -1 -4 0 -1 -1 -4 -5 -1 -1 -2 -1 -1 -2 -3 -3 -2 -1 -1 -1 -2 -2 -1 -2 -1 -1 -1 -1 -1 -2 -1 -1 0 -3 -1 -1 -1 -2 0 -2 -1 -2 1 -2 -1 -1 1 -1 2 -1 1 -1 2 1 4 1 2 1 1 1 3 3 1 1 3 0 2 1 2 0 3 0 2 -1 2 0 3 0 1 1 2 1 6 -2 3 4 3 3 1 1 1 2 0 2 1 1 0 2 3 1 1 1 1 2 0 3 -1 1 2 2 2 0 1 1 2 1 2 1 0 2 2 2 2 1 2 1 1 1 2 1 2 2 1 1 2 1 1 1 1 2 2 0 2 2 1 1 2 2 1 1 0 3 0 1 0 3 0 -2 1 -1 1 2 1 3 -1 -3 2 -1 1 1 0 1 2 5 1 2 2 1 2 2 3 2 2 1 0 2 1 1z"/><path d="M359 147l1 2 -1 2 -1 2 -3 0 -2 1 -4 -1 -2 -1 -2 -1 -1 -3 -2 -1 -1 -1 -2 -1 -2 -1 -1 -1 -3 0 -2 0 -2 0 -2 -1 -1 -1 -1 -2 1 -3 2 0 1 -1 2 0 3 0 2 0 5 0 2 -2 1 2 2 1 1 1 2 2 0 2 3 -1 2 2 1 1 1 2 3 2z"/><path d="M261 120l1 2 -2 0 1 -2z"/><path d="M339 119l0 2 -2 2 1 -3 1 -1z"/><path d="M336 117l-1 1 -1 2 -1 1 0 -2 0 -2 1 -2 1 1 1 1z"/><path d="M407 112l-1 2 -1 1 -3 0 -1 -1 2 -2 2 -1 1 1z"/><path d="M281 112l2 1 1 1 -1 2 -1 2 -1 1 -1 2 -1 2 2 1 -2 1 -1 -1 -1 1 -2 0 -2 0 -1 0 -2 0 -1 -1 -2 -1 0 -1 2 0 2 0 0 -2 0 -3 -1 -1 2 -2 3 -3 2 -1 2 1 2 1z"/><path d="M327 109l1 2 -1 1 -1 -2 1 -1z"/><path d="M329 119l0 2 -1 1 -3 0 -1 -1 -2 0 -1 1 1 1 3 1 -3 0 -2 -1 -4 1 -2 -1 1 -2 0 -2 -1 2 -1 1 -3 2 -2 0 -3 2 -2 0 -2 0 -2 1 -2 1 -1 0 -3 0 -2 0 -1 1 -2 0 -2 -1 -2 -1 -1 -1 1 -2 0 -2 0 -4 1 -1 3 0 2 -2 1 -1 2 0 2 2 1 0 2 -1 1 1 2 2 2 2 1 1 2 1 2 -1 1 -1 3 0 0 -2 -2 -1 -2 -1 -2 0 -1 -1 -1 -1 -2 -2 0 -2 1 -1 2 -1 2 0 2 1 1 1 1 2 2 2 1 -1 2 -2 2 1 2 2 0 2 0 -2 1 -1 2 -1 2 1 1 2 0 2 0 2 2 0 1 0z"/><path d="M401 112l-2 1 -1 2 -2 1 1 2 -2 1 -1 1 -3 1 -1 1 -3 0 -2 -1 -2 1 -1 1 -3 1 -1 1 -3 -1 -1 -1 -3 0 -1 1 -1 1 -2 0 -3 1 -2 0 -2 -2 -1 -1 -1 1 -2 0 -1 -1 -3 0 -2 1 -2 -1 -3 0 -2 1 -2 -1 0 -4 1 -2 2 -2 1 -1 2 0 1 -1 1 -1 2 0 2 0 2 0 3 1 2 0 2 0 2 2 2 0 1 1 2 1 1 1 2 1 2 -1 1 -2 2 1 2 0 2 -1 2 1 3 2 4 0 1 -2 1 -1 1 -1 2 -1 2 -1 2 -2 -2 -1 -1 1 0 -1 1 -2 3 1 0 3z"/><path d="M263 112l1 1 -1 3 -2 1 -3 2 -2 1 -1 1 0 2 -1 1 0 -2 0 -2 -1 -1 -2 -1 -1 -2 -3 -1 -3 0 -1 -2 -2 -2 0 -2 2 0 2 0 3 1 3 0 1 -1 2 -1 2 0 1 0 3 2 3 2z"/><path d="M139 101l-2 0 -2 -1 3 0 1 1z"/><path d="M262 83l-2 1 -2 0 -2 1 -1 -2 2 -1 3 0 1 1z"/><path d="M208 59l1 1 -2 1 -1 -1 1 -1 1 0z"/><path d="M16 52l-1 1 -4 -2 1 -2 2 2 2 1z"/><path d="M267 38l-2 1 2 -1z"/><path d="M277 10l0 2 0 2 -1 -1 0 -2 1 -1z"/><path d="M275 16l0 3 0 2 -1 1 -2 1 -1 -2 0 -2 -1 -2 0 -2 0 -2 1 -3 2 -2 1 -1 0 2 1 2 0 2 0 2 0 1z"/><path d="M407 161l1 1 -3 1 -1 2 -4 1 -2 2 -1 -3 2 -1 2 -1 2 -2 1 -1 1 -1 2 -2 0 3z"/><path d="M380 157l2 1 -1 2 -3 1 -2 -1 2 -1 2 -2z"/><path d="M409 151l-1 2 -1 2 0 -2 1 -2z"/><path d="M418 111l-1 1 -2 1 -1 1 -2 1 -1 1 0 2 -2 0 -2 0 -3 -1 2 -1 3 -2 -2 -1 1 -1 2 -1 0 3 1 -1 1 -1 2 -1 2 0 2 0z"/><path d="M425 111l-1 2 -1 2 -1 2 -2 1 -1 -2 -1 -1 1 -2 2 1 1 -2 1 -1 2 0z"/><path d="M697 113l-4 2 -2 -1 1 -2 1 -2 2 0 1 1 1 2z"/><path d="M440 111l0 2 -2 1 -5 1 -2 0 -1 0 -3 1 -1 0 0 -2 2 -2 1 -1 -2 1 0 -2 2 -1 1 1 2 0 4 0 2 0 2 1z"/><path d="M495 109l0 2 -2 0 -3 -1 -1 -1 2 -1 3 1 1 0z"/><path d="M551 109l0 2 -3 0 -1 1 -1 1 1 -2 1 -2 2 -1 1 1z"/><path d="M528 104l-1 2 0 1 -4 -2 0 -2 3 -1 1 0 1 2z"/><path d="M472 101l-2 0 -2 1 -1 0 -1 2 -1 1 -2 0 -3 0 -2 -1 -2 0 -1 1 -2 1 0 -3 1 -1 1 -2 1 -1 4 1 2 0 2 -1 2 -1 1 -1 2 2 2 0 1 2z"/><path d="M484 96l-1 2 -2 1 1 -2 1 -1z"/><path d="M697 97l2 0 0 2 -1 4 -1 1 -1 2 0 2 -1 1 -2 0 -1 2 -2 2 -1 1 -2 1 -3 -1 -3 0 -4 0 -2 1 -1 0 1 -6 1 -2 2 -5 1 -1 1 -2 2 -2 3 -2 2 -1 3 -1 2 0 3 0 2 3 0 1z"/><path d="M562 90l-1 1 1 2 0 2 -1 3 -1 2 -1 1 -1 1 -1 1 -1 2 -1 2 0 -2 -1 1 -2 0 0 -2 0 -1 0 -3 2 0 -1 -1 1 -2 0 -2 1 -1 2 -1 1 -2 1 -1 1 -2 2 1 1 0 -1 1z"/><path d="M568 89l-3 0 -2 -1 3 0 2 1z"/><path d="M506 88l-1 2 -1 -1 1 -2 1 1z"/><path d="M233 83l2 2 -3 1 -2 1 -1 1 -2 0 -2 0 -1 2 -2 0 -3 0 -2 -1 -7 0 -2 -1 0 -2 2 -1 1 -1 1 -1 3 0 4 0 3 0 4 0 2 0 3 -1 2 1z"/><path d="M69 75l0 2 -1 2 -1 -2 1 -1 1 -1z"/><path d="M614 76l-1 2 -1 3 -2 2 -3 -1 -1 -2 1 -2 0 -4 2 0 -1 -3 -1 -2 3 1 1 1 1 2 1 1 1 1 0 1z"/><path d="M354 63l1 3 -1 2 0 2 0 2 -1 2 0 -4 -1 -2 1 -2 -1 -2 1 -3 1 2z"/><path d="M583 60l0 2 -2 1 0 -3 -1 -2 1 -2 1 2 1 1z"/><path d="M619 68l0 2 -2 2 -2 -1 -3 -2 -1 -1 0 -1 1 -2 -1 -2 1 -2 -1 -1 -1 -1 1 -1 1 -1 2 -2 1 -2 2 0 1 1 -1 2 2 1 0 2 0 2 -1 1 1 2 -2 -1 2 2 1 1 -1 2z"/><path d="M590 50l-1 4 0 2 -1 1 -2 2 0 2 -2 3 1 -4 0 -2 1 -1 1 -2 1 -3 1 -2 1 -1z"/><path d="M383 48l0 4 -3 0 -1 -1 -1 -2 0 -2 1 -1 1 -2 1 2 2 1z"/><path d="M396 42l-1 1 -1 2 -1 2 1 2 -1 2 -1 -1 -1 1 -2 -1 -2 2 0 -3 1 -3 1 -1 0 -2 -1 -2 0 -3 2 0 3 -2 1 -1 2 4 0 2z"/><path d="M561 31l1 2 -1 -1z"/><path d="M403 48l1 1 -1 2 -2 1 -3 1 0 2 -1 2 -1 1 -2 -1 -2 -3 2 -1 0 -2 1 -2 2 -1 -1 -2 0 -1 1 -2 0 -2 0 -5 1 -3 3 -2 1 1 1 1 1 1 0 2 0 4 -1 -2 -2 1 0 2 -1 2 0 2 -1 2 2 -1 1 1 1 1z"/><path d="M597 27l1 2 -2 -2 -2 0 -1 -1 2 1 2 0z"/><path d="M556 25l-1 -1 1 1z"/><path d="M404 22l1 1 -1 3 -1 1 -2 0 -1 -2 -1 -2 2 -1 1 1 2 -1z"/><path d="M558 23l-2 -1 1 1z"/><path d="M404 13l-2 2 -1 -2 2 0 1 0z"/><path d="M503 13l0 1 -2 1 0 -2 2 -1z"/><path d="M500 12l0 3 -1 0 -2 2 -1 1 1 -3 -2 1 -1 1 -2 0 1 -2 1 -1 2 0 2 -2 2 0z"/><path d="M507 12l0 2 -1 0 -2 -1 2 0 0 -1z"/><path d="M479 11l0 3 -1 1 -3 1 -2 2 -1 0 -2 1 -2 0 -2 -1 -2 -1 -1 -1 -2 -1 -1 0 -1 -3 -1 0 -1 -2 -1 -3 0 -2 2 -1 2 1 1 -1 3 -1 6 0 2 0 1 1 2 1 1 1 0 2 1 1 2 0 0 2z"/><path d="M100 0l-1 2 -2 -1 1 -2 2 1z"/><path d="M109 -1l1 -1 1 1 -2 0z"/><path d="M547 13l-1 3 0 3 -3 -1 -2 -1 -1 -1 -2 -1 -1 -1 -4 -1 -2 -1 -1 -1 0 -2 -8 -1 0 2 -1 1 -1 -1 -3 0 -3 -1 -2 0 0 -2 -2 -1 -2 1 -2 2 0 1 -2 1 -3 -1 -2 -4 -2 -1 0 -1 -2 0 0 4 -2 1 0 2 -1 2 0 -3 -1 -3 0 -2 1 -1 2 -1 2 -2 0 -1 1 -1 4 0 2 -1 5 0 2 0 2 0 1 1 2 1 2 -1 1 0 1 -2 3 0 2 0 2 2 2 1 2 1 2 0 3 0 2 0 3 2 2 1 0 2 1 3 1 1 2 1 1 2z"/><path d="M126 -2l-1 2 -1 2 0 2 -2 1 0 1 -2 -1 -2 -2 -2 3 -2 0 -1 -1 0 -2 0 -2 -1 -2 1 -2 1 -2 0 -2 2 -1 1 -1 2 1 2 2 2 0 2 2 1 2z"/><path d="M616 -11l0 -2 0 2z"/><path d="M613 -19l0 1 -1 1 0 -2 1 0z"/><path d="M457 -11l-1 1 0 -1 -1 -2 0 -2 -1 -2 0 -2 1 -1 1 1 0 2 1 5z"/><path d="M416 -21l-1 1 0 -2 1 1z"/><path d="M538 -22l1 2 -1 1 -3 1 -2 0 -2 -1 -2 0 -1 -1 -2 -1 2 -2 3 -2 2 0 3 -1 1 1 2 2 -1 1z"/><path d="M443 -24l0 2 -3 0 -2 0 -2 1 -1 -1 -3 1 -2 1 -3 1 -2 -3 0 -2 1 -2 2 -1 2 0 2 0 2 1 2 0 2 1 2 -1 1 1 2 0z"/><path d="M97 -8l0 2 -1 1 -1 4 0 2 2 1 -1 1 -3 1 -1 -2 -2 -1 -1 -1 -4 -2 -3 -3 -1 -1 1 -2 -1 -3 -1 -1 -1 -2 0 -3 -2 0 -2 -1 -1 1 -3 0 -1 -1 -2 0 -1 -1 3 -3 2 -1 0 -2 -1 -2 1 -1 2 -1 2 0 0 1 1 2 0 2 2 0 0 -1 -1 -3 0 -1 2 0 1 -1 1 1 2 1 0 2 1 2 1 2 0 2 1 4 1 4 1 2 2 1 2 0 3 1 1 0z"/><path d="M377 92l1 1 -1 -1z"/><path d="M243 88l-1 1 1 -1z"/><path d="M239 87l1 2 -2 -1 0 -2 1 1z"/><path d="M268 88l-1 1 -2 0 2 0 0 -1z"/><path d="M619 75l-1 1 -1 -1 2 0z"/><path d="M598 -10l-2 0 2 0z"/><path d="M427 131l0 2 -1 2 -1 1 -1 2 -1 -3 -2 1 -2 -2 2 0 2 -2 3 -1 1 0z"/><path d="M436 126l2 -2 1 -1 0 -2 2 -2 2 0 2 -1 3 0 1 -1 4 -1 3 1 3 0 2 0 1 -1 2 -1 1 1 2 0 2 -1 1 0 2 -1 2 -1 2 1 2 -1 2 1 -1 2 -2 3 -2 1 -1 1 -2 1 -3 0 -1 1 -2 1 -1 2 -6 1 -2 1 -2 2 -2 0 -3 1 -2 1 -1 0 -2 1 -2 1 -1 2 -2 1 -2 -2 -1 -1 0 -2 2 0 1 -2 0 -2 -1 -1 -1 1 -2 0 0 -1z"/><path d="M448 110l2 -1 -1 3 -2 1 1 -2z"/><path d="M735 -7l2 0 3 0 1 2 2 0 4 2 4 2 1 2 3 0 1 1 1 1 2 0 3 1 2 2 2 0 4 2 2 0 2 1 3 0 5 1 2 2 1 1 2 1 1 0 2 2 2 2 2 0 2 1 2 -1 2 1 2 0 0 3 3 1 2 1 1 1 1 1 1 2 1 2 3 1 2 -1 2 2 1 1 1 2 1 1 2 3 2 0 0 2 0 3 0 2 0 2 -1 2 0 2 1 2 2 0 2 -1 1 1 2 0 1 1 3 0 2 1 1 1 2 2 2 1 2 1 2 0 1 2 2 0 2 1 1 -1 2 0 2 1 2 3 2 1 0 2 2 1 0 2 1 1 0 3 0 2 -2 0 -3 1 -3 0 -5 0 -2 -1 -1 1 -1 1 0 3 1 1 1 1 1 3 0 2 1 2 1 2 2 1 2 1 1 1 1 2 1 2 2 1 1 2 2 0 2 1 1 1 2 0 0 3 1 2 0 2 1 2 0 2 1 1 2 1 1 1 0 2 1 2 1 3 1 1 2 0 2 0 2 -1 2 0 2 -1 2 0 1 1 0 3 -1 1 -1 2 0 1 0 2 2 1 2 1 2 1 2 0 2 0 2 0 2 0 2 2 -2 1 -1 0 -3 1 1 3 1 1 1 1 3 1 1 0 2 1 1 1 2 0 2 1 2 0 2 1 2 -1 -2 2 -3 0 -2 0 -1 0 1 2 4 1 1 2 -3 1 -2 1 -2 0 -2 1 -2 -1 -1 -1 -2 0 -1 -1 1 -1 2 -1 -2 -1 -1 0 -2 -1 -3 -1 -2 0 -2 0 -3 -1 -2 -1 -2 0 -2 1 -1 -1 -3 0 0 -2 -2 1 -2 0 -2 0 -2 -1 -2 -1 -2 1 -2 1 -1 -1 -1 -2 -3 1 0 -2 -3 -1 -1 -1 0 -3 -2 -2 -1 -2 -1 -1 -3 -1 -1 -1 -1 -2 -2 -1 0 -2 1 -2 0 -1 -1 1 -2 0 -3 -1 -1 -2 0 -2 0 -1 -1 -1 -1 -2 -2 -2 -2 -3 0 -2 -1 -2 -2 -1 0 -1 -2 -2 -2 0 -2 -1 -2 -1 -2 0 -2 0 -2 -1 -2 -1 -1 0 -2 -1 -2 0 -2 -1 0 -3 -1 1 -1 0 -1 -2 -1 2 -2 -1 0 -2 -1 2 -1 -1 0 2 1 2 -3 -1 0 -2 0 2 -2 -1 1 2 -2 0 -5 -1 -1 -1 -1 -3 -2 -1 1 1 0 2 2 2 0 2 2 3 -3 0 2 1 -2 1 -2 -1 -2 0 -2 -1 -2 -1 1 1 2 2 2 3 -6 1 -2 1 -4 1 -3 -1 -2 0 -2 0 -2 1 -2 0 0 -3 -2 0 -2 0 2 0 1 1 1 2 2 1 2 -1 2 0 2 1 1 1 3 1 4 3 1 1 1 2 1 3 -1 2 -2 1 -2 1 -2 0 -1 1 -2 2 -3 1 -1 1 -3 -1 -1 -1 -2 0 -2 -1 -2 0 -3 0 -1 1 -2 -1 -2 1 -2 0 -2 -1 -2 -1 -3 2 -2 0 -2 -2 -1 -3 0 -4 0 -4 0 -4 0 -5 0 -4 0 -5 0 -3 0 -6 0 -3 0 -4 0 -2 -1 -1 -1 -3 0 -2 1 -1 1 -2 0 -2 0 -3 0 -5 0 -4 0 -4 0 -5 0 -4 0 -4 0 -4 0 -4 0 -9 0 -4 0 -4 0 -4 0 -7 0 -6 0 -4 0 -3 0 -1z"/><path d="M974 181l-3 1 -1 0 -2 -1 -1 -1 -2 -1 -1 -2 1 0 2 0 2 2 2 0 2 1 1 1z"/><path d="M984 176l-2 2 -1 0 -2 -1 2 0 1 -1 1 0z"/><path d="M963 175l-1 -1 2 0 -1 1z"/><path d="M956 161l1 1 -2 1 -2 -1 -2 -1 3 1 2 -1z"/><path d="M924 161l-1 1 -2 -1 2 0z"/><path d="M920 159l0 3 -2 -1 1 -1 1 -1z"/><path d="M926 147l2 0 0 2 -1 2 -4 0 -2 -2 1 -1 -2 0 0 -3 -2 -1 1 -2 0 2 3 2 2 1 0 2 2 -2z"/><path d="M919 141l-3 0 -1 0 -3 -1 1 -1 -1 -2 0 -1 1 -2 2 1 1 1 3 0 1 2 1 2 -2 2 0 -1z"/><path d="M911 135l-1 2 -2 1 -1 -2 -1 -1 0 -3 2 0 2 1 1 2z"/><path d="M960 130l-1 2 -2 1 -2 -2 -2 0 1 -1 -2 -1 -1 -1 -1 -1 -1 1 -1 -1 1 -1 2 1 2 0 2 0 2 1 2 1 1 1z"/><path d="M924 122l0 -2 0 -2 -1 -1 1 -2 1 1 0 3 -1 3z"/><path d="M785 120l0 1 -3 -2 -1 0 -1 -2 -2 -1 -1 -1 3 1 1 1 3 2z"/><path d="M780 115l-1 -1 3 0 2 1 -1 1 -2 -1 -1 0z"/><path d="M867 56l1 3 -1 2 -1 -1 -2 -1 -1 -1 -1 -2 1 -2 1 0 2 1 1 1z"/><path d="M1014 78l1 2 -2 1 -2 1 -3 0 -1 0 -2 -1 -1 -1 -4 -4 1 -2 0 -3 -2 -1 -2 -1 -1 -2 -1 -1 -1 -1 -2 -2 0 -2 -1 -1 1 -3 1 -2 -2 -2 2 0 2 2 2 0 2 1 1 2 1 1 0 2 2 2 1 1 1 3 2 1 1 1 2 1 1 1 1 1 1 2 1 2 0 2z"/><path d="M868 51l1 2 -1 -1z"/><path d="M852 49l0 2 -1 1 -2 -1 -1 -1 0 -2 2 -1 2 2z"/><path d="M992 48l-1 2 0 3 -1 -1 -1 -3 0 -2 -1 -1 1 -1 2 -1 0 1 1 3z"/><path d="M895 36l1 1 -2 -1z"/><path d="M829 34l1 1 0 2 -1 1 -2 0 0 -3 1 -1 1 0z"/><path d="M949 30l-1 2 0 3 1 2 -1 2 -1 2 -1 2 -2 0 -2 0 -1 3 1 2 1 1 0 3 -2 2 -1 1 -2 0 -1 0 -2 -1 -3 1 -1 1 1 1 -1 1 -1 1 -1 2 -2 1 -1 1 -1 1 -2 1 -2 0 -2 0 -2 2 -2 1 -1 1 -1 1 -2 0 -2 1 -2 -1 -1 1 -2 -1 -2 1 -3 -1 -3 0 -1 -2 -1 -1 -2 -1 -2 0 -2 1 -2 1 0 -2 -2 -2 -2 -1 -1 -1 -2 -1 -2 0 -2 -1 -2 -1 0 -4 1 -2 2 1 1 1 2 -1 2 0 2 0 3 0 2 1 1 1 3 0 1 -1 4 -1 1 1 2 0 2 -1 1 -1 -1 -2 1 -2 1 -1 0 -2 1 -2 2 0 -1 2 -1 2 0 1 0 2 1 2 1 2 2 0 1 -1 3 -1 1 0 1 2 3 -1 1 -1 2 1 1 -1 1 -2 0 -2 1 -2 1 -1 2 -2 1 -1 1 -2 2 1 2 0 2 -1 0 -2 0 -3 -1 -2 0 -2 -1 -2 -1 -1 0 -2 3 -1 2 1 1 0 1 2 3 -1 1 -1 1 -1 2 1 -2 2 3 1 1 -1z"/><path d="M812 23l0 2 0 -2z"/><path d="M990 7l2 3 -2 -2 -1 -2 1 1z"/><path d="M953 4l0 2 -2 -2 1 -2 1 2z"/><path d="M922 1l-2 0 1 -1 1 0z"/><path d="M942 0l-1 1 -1 -2 2 1z"/><path d="M941 -3l-1 1 -1 -2 2 0 0 1z"/><path d="M962 28l0 2 -1 2 0 2 0 2 -2 2 -1 1 -2 -1 -1 -2 0 -1 -1 -2 0 -2 0 -3 0 -2 -2 -3 0 -2 -1 -1 -2 -2 -1 -2 -1 -2 -1 -1 -2 -1 -3 -1 -4 -2 -3 -4 -2 -1 -1 -1 -2 -1 -1 -1 -1 -1 -2 -1 -2 -1 -1 -1 -3 0 -1 -1 2 -1 -1 -2 2 1 2 1 1 1 2 2 3 1 1 0 2 2 2 1 1 1 1 1 2 1 2 1 2 1 1 1 1 2 2 1 2 2 1 1 1 1 1 2 2 2 1 1 2 0 1 1 1 1 1 2 1 2 2 1 0 1z"/><path d="M912 -8l0 2 -1 1 -2 0 -2 0 -2 -3 -1 -1 1 -2 2 0 2 0 2 1 1 2z"/><path d="M863 -15l1 2 -2 1 1 -2z"/><path d="M856 -20l-1 2 -2 0 -1 2 -3 0 -2 1 -2 -1 -2 -1 -1 1 -2 1 -1 -1 2 -1 -1 -2 2 -1 2 0 2 0 4 0 2 0 2 1 2 0 -1 -1z"/><path d="M982 32l1 2 -1 -1 0 -1z"/><path d="M950 25l0 2 0 -2z"/><path d="M972 23l-1 2 1 -2z"/><path d="M786 114l-2 0 2 0z"/><path d="M786 107l-2 0 1 0z"/><path d="M926 41l-1 1 1 -1z"/><path d="M784 9l-1 0 1 0z"/><path d="M1205 1005l-3 1 2 -1 1 0z"/><path d="M1207 999l-2 2 1 1 1 2 -3 0 -1 -2 -1 2 -2 0 1 -2 2 -1 1 -1 1 -2 3 0 -1 1z"/><path d="M1221 405l0 1 -1 2 -2 -2 -1 2 -1 -1 -2 -1 -2 -1 -1 1 -1 -3 -2 0 -1 0 -2 -1 0 -2 -1 -2 -2 0 -1 -1 -2 0 -1 -1 -2 -1 -3 -2 -1 -1 -3 -1 -1 -2 -2 -1 0 -1 -2 -1 -1 -1 -3 -2 0 -3 -2 0 -1 -2 -1 -1 -2 -1 -1 -1 -1 -2 -2 -3 -2 -1 0 -2 0 -2 -2 -1 -1 -1 1 -2 -1 -1 1 0 2 3 2 1 4 0 2 2 1 1 2 1 1 2 2 1 1 1 2 1 2 1 1 1 1 2 2 0 0 3 2 1 1 1 1 2 2 1 1 1 2 1 1 1 2 0 1 2 2 1 1 1 2 1 2 2 1 1 2 2 1 1 2 1 3 1 0 2 1 1z"/><path d="M1169 361l-1 -2 1 1z"/><path d="M1159 352l-1 -1 1 1z"/><path d="M78 157l0 3 -2 -1 1 -2z"/><path d="M1100 185l1 1 -3 0 -1 -1 -1 -1 -1 -2 -2 1 -1 -1 -2 -1 0 -2 2 1 2 1 1 1 2 1 3 2z"/><path d="M1135 165l-4 0 -1 0 -2 0 -2 -1 -2 -1 -1 -1 -2 -1 -1 -1 -1 -2 -1 -2 -1 -1 -2 0 -1 -2 2 -1 2 1 2 2 1 1 2 1 2 1 2 0 3 0 1 1 1 2 1 1 0 3 1 0z"/><path d="M1127 145l-1 -3 1 2 0 1z"/><path d="M1116 136l-1 -2 2 1 0 2 1 2 1 1 1 2 -2 0 -2 -1 0 -3 0 -2z"/><path d="M1106 145l-2 1 -2 1 -2 -1 -2 -1 -1 -1 -3 0 -2 0 -3 0 -1 0 -2 -1 -1 -2 -1 -1 -1 -2 0 -2 0 -2 2 -2 2 2 1 2 2 0 2 0 3 0 2 0 2 1 1 1 2 1 1 3 2 0 0 2z"/><path d="M1095 131l1 -2 2 1 -1 1 -3 0 1 0z"/><path d="M1075 128l0 2 0 -2z"/><path d="M1092 128l1 -1 3 1 -1 2 -1 -1 -2 0z"/><path d="M1075 128l-2 2 -1 -1 1 -1 1 0z"/><path d="M1046 122l-2 0 -1 -1 2 0z"/><path d="M1057 122l0 -1 0 1z"/><path d="M1054 117l1 1 -1 1 0 2 -1 1 -1 0 -1 -3 1 -1 1 -1 1 0z"/><path d="M1041 118l0 2 1 1 -2 -1 -1 -1 0 -2 2 -2 1 1 -1 2z"/><path d="M1084 117l-1 -1 -1 -1 1 -1 1 2z"/><path d="M1116 140l-2 -1 -1 -2 -1 -2 -1 -1 -1 0 -1 -1 -2 -2 -2 -3 0 -2 -1 -2 -1 -2 -1 -3 1 -2 -1 -2 0 -2 2 1 2 0 1 2 1 2 1 1 -1 2 0 2 2 1 1 1 1 2 0 2 1 1 1 3 1 3 1 2 0 2z"/><path d="M1037 112l-2 -1 2 1z"/><path d="M1038 112l-1 -2 1 2z"/><path d="M1049 118l-2 -1 -1 -1 -1 -1 0 -2 -1 -1 -2 0 -2 1 -2 -2 2 -1 1 -2 1 -2 3 0 1 2 0 3 3 0 1 2 1 3 0 2 -1 0z"/><path d="M1027 108l0 2 -1 -1 0 -2 1 0z"/><path d="M1036 109l-2 -1 -1 -2 1 -2 2 -1 1 1 1 2 0 2 -1 1z"/><path d="M1031 100l-1 2 -1 2 -2 0 -1 -3 -1 -2 1 -1 1 -1 1 2 1 1 2 0z"/><path d="M1008 92l-1 1 0 -1z"/><path d="M1012 86l1 1 -2 1 -1 -1 1 -2 1 1z"/><path d="M1018 84l-1 1 0 -2 1 0z"/><path d="M1205 163l-2 1 -2 0 -1 2 -2 -1 0 -2 2 -1 2 0 2 0 1 1z"/><path d="M1062 98l-2 1 2 -1z"/><path d="M1088 117l-2 0 -1 -1 -2 -2 -2 -1 -1 -1 -2 -1 -2 -1 -2 -1 -2 -1 -1 -1 -2 -1 -1 -2 -2 -1 -2 -2 0 -2 -2 -1 -1 -1 3 0 2 1 2 1 1 1 2 2 1 1 1 1 2 0 2 1 1 1 2 1 1 1 3 2 3 3 -1 1 1 2 1 1z"/><path d="M1060 97l-2 -1 2 0 0 1z"/><path d="M1046 94l-3 0 2 0z"/><path d="M1058 94l0 1 0 -1z"/><path d="M1049 94l-1 1 0 -2 1 1z"/><path d="M1044 92l-1 2 -2 0 -1 -1 -3 -1 -2 -1 -1 -1 -3 -3 -1 -1 -2 -3 -1 -1 -2 -2 -1 -2 1 -1 1 0 3 3 2 1 1 1 2 0 1 1 1 2 1 2 1 2 1 1 1 1 2 1 1 0 1 0z"/></g><g fill="#c7b6ff" stroke="#a78bff" stroke-width="1.4" stroke-linejoin="round"><path d="M559 601l-3 -2 -3 -1 -4 2 -3 1 -2 0 -3 0 -4 0 -3 -1 -4 1 -4 0 -4 0 -3 1 -3 0 -1 1 -3 0 -4 2 -2 1 -8 4 -4 1 -5 1 -3 1 -6 2 -3 0 -3 1 -3 0 -2 0 -6 -1 -2 0 -2 -1 -3 1 -1 1 -3 1 -2 2 -2 2 -4 1 -2 1 -3 1 -1 1 -2 2 -3 1 -4 1 -3 0 -2 2 -2 1 -1 2 -1 1 -1 3 0 1 -1 3 -1 1 -2 1 -1 1 -1 3 -2 1 -1 1 -1 -1 -2 0 -2 2 -2 0 -1 -2 -1 -1 -3 1 -2 0 -2 0 -2 1 -3 -1 -2 1 -1 1 -3 1 0 -2 -1 -2 -2 0 -1 1 -2 0 -1 -1 -2 0 -5 -1 -2 1 -2 0 -2 0 -3 0 -1 1 -4 0 -3 2 -3 -1 -1 0 -2 0 -2 0 -1 1 -2 0 -2 1 -1 1 -2 1 0 2 -2 1 1 2 -2 1 -2 1 -1 1 -1 0 -5 -1 -2 1 -2 1 -1 2 -2 1 -2 1 -1 2 -1 1 -2 1 -2 1 -2 1 -3 0 2 1 -3 0 -2 -1 -1 1 -2 0 -2 -1 -3 0 -2 0 -2 0 -2 0 -2 0 -1 -1 -2 1 -2 0 -2 -1 1 -1 -2 -1 -1 0 -2 0 -3 -1 -2 0 0 -2 -1 -2 -3 -2 -3 -2 -1 -1 -4 -2 -3 0 -3 -1 0 -3 0 -1 -1 -3 1 -3 -1 -2 1 -1 1 -2 1 1 1 1 2 0 2 0 3 -3 1 -2 1 -2 1 0 0 -2 0 1 0 -3 0 -2 -1 -2 0 -3 -1 -1 0 -3 2 -1 -1 1 0 3 0 -2 2 -1 -1 -1 1 -2 0 -2 0 -3 0 -1 0 -2 0 -3 -1 -3 0 -2 -2 -3 -1 -3 -2 -2 -1 -4 -1 -3 -2 -2 -1 -1 -1 -4 -1 -3 0 -3 -1 -2 0 -2 -1 -2 0 -4 0 -3 0 -3 1 -2 -1 -2 -1 -2 -1 -4 -3 -4 -2 -3 1 -2 -2 -4 -2 -2 -1 -2 -1 -2 -3 -2 0 -2 -1 -3 1 -3 -1 -6 -1 -3 -2 -3 -3 -5 -2 -3 -1 -2 -1 -1 -2 -2 -2 -2 -1 -2 0 -1 -2 -3 2 1 0 -2 0 -2 1 2 0 2 0 3 0 -3 1 -2 -1 -2 1 3 1 2 1 1 0 3 1 -2 -1 -2 1 2 0 2 0 2 1 -1 1 2 0 1 2 -1 2 -1 0 -3 -1 -2 -1 -1 -2 -1 0 -2 -2 -1 0 -2 -1 -2 -1 -2 0 -1 0 -2 1 -3 1 3 1 1 0 1 2 1 1 2 -1 2 0 2 0 2 3 -1 0 -2 0 -1 1 1 0 2 0 2 1 2 1 2 1 1 2 -1 0 -3 0 -2 1 -2 -1 -1 1 -2 0 -2 -1 -1 -1 -1 -2 -2 0 -1 -2 -2 -1 -4 -1 -2 -1 -2 -2 -1 0 -1 0 -3 -1 -1 -1 -4 -2 -2 -1 -2 0 -4 1 -2 -1 -2 1 -2 1 -2 1 -2 1 -3 1 -1 1 -1 1 -3 0 -3 0 -2 1 -2 0 -3 -1 -1 -1 -3 -1 -2 0 -2 2 -2 0 -2 2 -5 1 -2 2 -3 1 -1 1 1 -1 5 0 2 0 2 1 3 0 2 1 -1 2 0 2 -2 0 -2 1 -2 1 -2 0 -2 2 -1 0 -2 3 -2 3 -2 2 0 3 -2 4 -1 1 -2 2 -2 1 -1 3 -1 1 -2 1 -1 2 -2 2 -1 1 -1 2 -1 1 -1 3 -1 2 -1 2 -1 1 -2 1 3 3 -1 1 -1 2 0 2 2 3 0 3 -1 3 -1 2 0 1 -1 4 -5 3 0 2 0 3 0 3 0 2 -1 1 -2 2 -2 1 -2 2 -1 3 0 2 1 2 1 2 0 2 -1 1 -1 3 0 3 -1 3 0 2 -1 5 -2 3 -2 3 -1 3 -2 4 -4 2 -3 2 -3 0 -2 1 -1 1 -2 -1 -2 3 -1 0 -2 1 -2 2 0 2 -2 2 -2 1 -1 3 -2 0 -1 0 -2 -2 -1 -1 -2 0 -3 0 -2 -1 -3 0 -3 1 -2 2 -2 2 -4 1 -1 3 1 -2 -2 1 -2 3 0 2 0 -1 -1 0 -2 1 -1 1 -2 1 -1 1 -1 1 1 -1 2 0 2 1 1 1 2 1 2 1 2 1 1 0 2 2 2 0 2 1 1 1 2 1 1 1 2 0 -3 0 -2 0 -1 1 -2 -1 -2 0 -2 2 1 1 1 2 2 -1 -3 1 -2 1 -1 1 -2 -2 1 -2 -1 -2 -2 -2 -1 1 -2 0 -1 -1 1 -2 -2 3 1 1 -1 -2 -1 2 0 2 -1 -2 -1 -1 -1 0 -2 2 -1 2 1 -1 1 1 1 1 1 2 1 1 -2 -2 -2 2 1 2 1 2 2 1 0 2 0 1 0 3 0 2 0 2 1 -1 -1 -3 -1 -3 0 -1 -1 0 -3 1 -2 1 2 2 -1 0 -2 0 -1 1 -2 2 -1 -2 0 -1 1 -2 2 0 -1 -2 -2 0 -3 1 -1 -1 -2 1 -1 3 1 1 -2 1 -1 -1 -2 2 1 2 0 1 1 1 2 2 0 1 1 -1 -2 1 -2 -2 -1 -1 1 -1 -1 1 -2 2 -1 -2 1 -2 1 -1 -2 1 -1 2 0 1 -2 1 1 1 1 0 -1 2 0 1 1 2 1 -1 -1 0 -2 -2 -1 0 -1 1 0 -2 -2 -1 -1 1 -2 2 -1 -1 -1 2 0 2 1 0 -1 1 -2 1 1 1 -2 0 -2 0 -2 1 1 0 4 -1 3 1 -2 2 -1 1 1 1 2 1 -2 2 0 -1 -2 1 -2 0 -2 2 -1 0 -2 -3 0 1 -2 0 -2 2 1 1 2 -1 1 1 1 1 1 1 -1 1 -2 1 -2 2 0 -1 2 1 2 1 2 1 -2 2 -1 0 -2 2 0 -1 -2 -1 -2 2 0 2 -1 1 1 2 2 1 1 2 0 2 0 1 2 2 1 1 1 2 2 1 1 1 2 1 1 1 1 1 2 2 1 1 1 1 2 -1 2 0 2 -1 2 0 2 0 3 0 2 -1 2 1 -1 1 -2 -1 -2 3 0 1 3 0 -2 -1 -2 -1 -3 1 -2 2 1 2 1 -1 -2 0 -2 1 -2 2 0 3 1 1 0 3 1 1 0 2 1 1 1 0 2 0 3 1 1 1 -3 0 -2 -1 -3 2 0 3 2 1 1 1 2 1 1 1 1 -1 -2 0 -2 0 -2 1 -1 2 0 2 -1 2 -2 -2 1 -2 1 -2 -1 -1 -1 -1 -2 2 0 2 -2 -2 1 -2 0 -2 -2 -1 -1 -1 -2 1 -1 1 -2 0 -2 2 -1 2 0 1 -2 0 -2 1 -1 0 -2 0 -2 1 -2 1 -2 1 2 3 -2 2 -1 1 -1 -1 -1 -1 -2 -1 -3 0 -3 2 1 2 -1 0 -3 0 -2 2 -1 2 1 2 1 -1 -1 0 -2 0 -1 0 -2 1 -1 2 1 0 3 2 1 0 -2 2 0 -1 -1 -2 -1 1 -2 3 1 0 -3 -1 -1 3 -1 1 1 1 -1 1 -1 1 2 1 2 2 0 1 0 3 0 2 -1 1 0 2 1 1 1 2 -2 1 -1 2 1 2 1 -1 2 1 -2 0 -2 1 -1 2 -1 2 1 -1 -2 0 -4 -1 -1 1 -2 0 -2 -2 -1 -1 -2 -2 -1 -2 1 -2 1 -2 -1 -1 -1 -1 -2 -2 0 0 -3 2 1 1 -2 1 1 1 2 1 2 1 1 0 -2 -1 -2 0 -2 2 2 1 -2 1 2 2 0 1 2 1 2 1 1 1 1 2 -2 1 0 1 -2 1 1 1 2 1 2 1 2 2 1 1 0 2 1 2 1 1 1 1 -1 1 -1 3 -1 1 1 -1 2 1 1 3 -1 1 1 2 1 0 2 1 -1 2 1 1 0 3 0 2 -2 2 1 1 2 2 1 1 1 1 2 3 0 1 -1 1 -2 1 -1 2 0 3 0 1 -2 -2 1 1 -2 2 0 1 -1 2 -2 -1 2 -2 1 3 0 -2 2 -1 1 -2 2 1 2 2 -1 1 -2 3 -1 -1 1 -1 2 2 1 -1 2 1 2 2 -1 2 0 1 -1 1 -2 0 -1 -2 0 -1 -2 2 -2 1 0 1 -1 2 -1 0 1 1 1 0 1 1 2 2 2 1 -1 -2 -1 2 0 1 1 2 1 0 2 -1 1 -2 2 -1 1 -1 2 -1 1 0 2 -1 -1 -1 1 1 2 2 2 -3 0 1 1 0 2 -1 2 -2 1 0 -2 0 -3 -2 1 -1 2 -1 1 -1 -2 -1 1 0 2 -1 -1 -1 1 -2 2 2 1 -2 1 0 2 0 2 1 2 2 -2 0 3 0 2 -2 1 0 4 -2 2 -1 1 -1 3 -2 1 -1 1 0 2 -2 2 -1 1 1 3 2 2 2 1 2 1 2 2 1 1 1 1 2 1 2 1 1 2 2 3 2 1 2 1 2 1 1 2 1 1 2 0 2 -1 1 1 2 1 2 1 2 3 2 0 4 1 2 2 1 2 1 2 2 1 1 2 2 1 2 1 2 1 1 0 4 0 2 1 2 1 2 0 2 2 2 2 -1 1 1 2 1 2 1 1 2 1 1 0 2 2 2 1 2 1 3 1 1 2 2 0 3 0 3 -1 2 -1 2 -1 1 -1 1 -1 2 -1 1 -2 0 -2 1 -2 0 -2 2 -3 0 -2 2 -1 1 -1 0 -3 1 -2 1 -3 0 -1 1 -2 1 -2 -1 -3 0 -2 1 -4 1 -4 2 -4 0 -2 1 -1 0 -3 0 -1 -2 -7 0 -2 0 -3 1 -3 0 -2 0 -1 -2 -3 0 -2 1 -6 0 -2 2 -2 1 -2 -1 -2 -1 -3 0 -1 1 -2 1 -1 1 -1 1 -2 2 1 0 3 0 -2 1 -2 -1 0 -2 -1 2 -1 -2 -1 -2 -1 -2 1 2 -5 1 -2 1 -2 0 -3 2 -1 0 2 2 1 -1 -2 0 -2 0 -2 1 -2 2 -8 0 -2 0 -3 0 -3 2 -1 2 -1 1 -1 1 -2 2 0 1 1 -1 2 -1 2 1 -2 1 2 2 1 1 1 0 2 0 2 1 2 0 2 0 1 0 3 1 3 0 2 2 2 2 -1 1 1 -1 4 0 2 0 2 1 0 2 1 0 2 2 2 1 1 -1 2 0 3 2 0 1 2 0 3 0 2 0 3 1 2 0 2 0 2 -1 2 1 2 0 1 2 3 0 2 0 2 1 3 1 2 2 1 2 0 2 -1 1 -2 0 -1 2 0 3 -1 1 -2 2 3 0 1 0 3 1 1 2 1 2 1 1 1 2 2 1 1 2 1 2 2 -1 3 0 1 1 2 0 2 -1 2 0 2 1 1 1 3 0 2 1 3 1 2 0 2 0 2 -1 2 0 2 1 1 1 2 1 1 1 2 1 1 1 2 1 2 1 -1 2 -1 0 2 -1 2 1 2 1 3 1 2 1 2 0 2 1 1 -1 3 0 2 -1 3 0 2 -1 2 2 3 2 2 1 2 1 0 0 2 -1 4 1 2 2 2 1 2 2 1 1 1 3 0 1 2 2 0 1 -2 1 2 1 2 3 1 3 -1 -1 -2 2 3 1 2 1 2 0 2 2 2 1 0 0 -3 2 3 1 2 2 -1 3 2 2 1 -1 2 2 1 1 1 1 -2 2 -1 0 2 1 1 1 1 2 0 1 2 2 3 -2 0 0 -1 -2 1 -1 1 1 2 1 3 1 1 2 1 2 1 1 1 1 2 1 1 0 2 0 1 2 2 0 2 1 1 1 2 0 2 1 1 -1 2 1 1 1 3 1 3 0 2 2 2 0 2 -1 1 2 -1 2 0 2 2 1 1 -1 -4 -1 -2 1 -2 1 -1 2 1 1 2 0 2 2 0 2 1 2 2 2 2 -1 -2 0 -2 0 -3 2 2 1 1 0 2 0 2 1 -2 0 2 1 2 0 2 -1 2 0 2 0 2 1 2 0 2 0 2 1 2 1 2 2 0 1 1 1 2 1 2 2 1 2 2 1 0 1 2 3 0 -1 -1 2 1 1 0 1 2 2 1 1 4 1 2 1 2 4 3 2 0 1 2 0 1 2 5 1 1 1 2 2 0 2 1 0 2 -1 2 2 -1 -1 2 0 2 1 2 1 2 0 2 1 -2 1 2 2 0 -1 2 -1 2 -1 3 1 2 0 6 0 2 0 2 1 2 1 2 -2 1 -1 1 1 3 -1 1 2 1 0 2 1 0 1 2 1 3 1 2 1 2 -1 2 1 2 1 2 1 1 1 2 -1 3 0 3 1 2 0 3 0 1 -2 1 0 1 -1 2 -1 2 0 2 -1 1 1 2 -1 2 0 2 0 2 -1 2 0 1 0 2 -2 2 0 2 -1 3 -1 3 0 1 -1 2 -1 4 1 2 1 1 0 2 -1 2 -1 2 0 1 -1 3 0 2 -1 2 0 2 -1 1 -1 2 -1 1 -2 2 -1 2 0 2 1 2 -1 1 0 2 -2 3 -2 1 -2 1 0 2 -3 0 2 0 -1 2 -2 0 -2 1 -2 1 -1 1 0 2 -1 2 -1 2 -1 1 -2 1 0 2 0 1 -1 1 -2 1 0 2 0 4 -1 2 -1 1 -1 2 -1 1 -1 1 -1 2 -1 2 0 2 -1 2 1 1 -1 3 -2 1 0 2 0 2 1 1 -1 -1 -2 2 1 1 -1 1 -2 1 -1 1 -1 3 -1 1 0 2 -1 2 -1 2 -1 1 -1 2 0 3 -2 1 1 1 0 2 0 3 -1 1 0 3 -1 1 -1 2 0 2 -1 2 0 3 0 1 2 1 1 3 -2 0 0 3 0 2 -1 1 -2 0 -2 -1 1 2 -1 1 -1 1 -2 1 -4 1 -1 0 -2 0 -4 0 -3 0 -3 0 -6 0 -3 1 -4 1 -3 2 -3 2 -4 3 -4 3 -2 2 -2 2 -1 1 -1 1 -3 0 -2 1 -2 0 -4 0 -1 1 1 1 0 2 2 -1 1 -1 1 2 0 1 0 2 -1 2 -2 -1 -1 -2 -1 -3 -2 -1 -2 1 -1 1 -1 -2 -1 -1 -1 -2 -3 0 -2 -1 -1 -1 0 -2 1 -1 1 -2 -2 -2 -2 0 -2 1 -1 1 -1 2 -1 0 -2 2 -5 -4 3 1 2 -1 1 -1 1 -2 1 -1 0 -2 -2 -1 -1 -2 -1 -1 -2 2 -2 1 -3 1 -1 1 -2 1 3 1 2 -1 1 1 -1 2 -2 0 -2 0 -2 2 -2 1 -2 0 -2 2 -2 3 -3 1 -1 1 -1 1 -2 1 -1 -1 -2 -1 -2 0 -1 -1 -2 -1 -3 -1 -2 -1 -1 -1 -2 -1 -2 -1 -2 -1 -3 0 -1 1 -3 -1 -2 -2 -2 0 -2 0 -2 0 -1 1 0 2 -2 -1 -2 0 0 -1 -3 -3 -2 -1 -2 -1 -5 0 -2 -1 -1 -1 -2 -1 -2 -1 0 -2 -1 -1 -1 -2 -2 -1 -1 -2 -1 -1 -5 -4 -1 -2 1 -2 -1 -1 -1 -2 2 -1 1 -1 1 -2 0 -3 -3 -5 -2 -4 -1 -2 -2 -2 -3 -4 -2 -1 -2 -1 -1 -2 -2 -1 8 6 2 2 1 1 1 1 2 4 -1 -3 -3 -4 -1 -1 -4 -3 -1 -1 -2 -2 2 -1 2 1 0 1 1 2 1 -2 -1 -1 1 -1 0 -3 -1 -1 -3 1 -2 0 -1 1 1 1 -2 1 -2 -1 2 1 -2 1 -3 0 -1 1 -3 1 -3 0 -2 0 -1 -2 3 -1 1 -2 1 -1 1 -1 1 -2 0 -2 0 -3 0 -2 0 -2 -1 -2 -1 -2 -1 -1 -1 -3 -1 -2 -1 -1 -1 -3 -2 2 0 3 -1 1 -1 2 0 2 0 3 -1 2 -1 3 -1 2 -1 2 -2 -1 -2 0 -2 1 -3 0 -1 1 -3 1 -1 0 -2 -1 2 -2 1 -1 0 -2 2 -1 2 -1 2 1 2 0 1 -1 0 -3 1 -3 -1 -3 -1 -1 1 -1 0 -3 0 -1 2 -2 0 -2 1 -1 0 -2 2 -2 2 -3 2 -1 -1 -1 -1 -2 0 -3 0 -2 2 -1 2 0 -1 -2 -2 -5 -1 -2 0 -2 -1 -1 -1 2 1 3 0 2 -1 1 -2 1 -2 3 -1 1 -1 2 -1 2 -1 2 -1 3 -1 1 -2 1 -2 0 -2 1 -1 1 -2 1 -2 1 -1 2 -2 1 -1 1 -1 1 -2 4 -2 1 0 2 -2 0 -1 1 0 2 -2 1 0 2 -1 1 3 -1 1 1 -1 2 1 1 -3 0 -1 -1 -2 0 -1 1 -1 -1 -1 -2 -2 -2 -2 0 -1 -2 -2 -1 0 -1 1 -2 2 2 1 2 1 1 -1 -2 0 -3 -1 -3 0 -2 -1 -1 0 -2 -1 -3 -3 -2 -1 -1 -2 -1 -1 -1 0 -3 0 -2 -1 -2 -2 -1 0 -2 -1 1 -2 -1 -2 0 -1 1 -2 -2 -1 -2 0 -2 -2 0 0 -2 0 -2 2 -1 2 0 -1 -2 0 -2 -2 -1 -2 0 -2 2 -1 -2 1 -1 0 -1 -1 -2 -2 -1 -1 -1 -2 -2 -2 2 -2 1 -2 -1 -2 0 -2 -1 -2 -1 -2 -1 -1 -2 -3 0 -2 0 -2 1 -2 1 -2 0 -2 -2 -3 -2 -3 -2 -5 -3z"/><path d="M496 255l1 2 -1 -1 0 -1z"/><path d="M501 252l1 2 -2 -2 1 0z"/><path d="M522 249l1 1 0 2 -1 -2 0 -1z"/><path d="M465 229l3 1 -3 -1z"/><path d="M594 182l0 1 0 -1z"/><path d="M596 179l-2 1 2 -1z"/><path d="M866 845l-1 -1 -2 0 -2 -1 1 -1 -2 0 -1 -2 1 -1 2 2 3 -1 -2 -1 -1 -1 -2 -1 -2 -1 -1 2 1 1 -2 2 0 -2 -1 -1 -2 -3 1 2 0 3 -1 1 -1 2 1 2 -2 1 -1 -2 -2 -1 -1 1 2 1 -1 2 0 2 -1 1 -1 3 -2 0 -2 0 -2 -1 -1 -2 -3 1 -2 -1 -1 1 -3 0 0 -2 -2 -1 3 -1 1 2 2 -2 -1 -1 -2 1 -2 -1 -1 -2 -1 1 -1 -1 -1 -1 -2 -1 -1 -3 -3 -1 0 -1 -1 -2 -1 -2 -1 -1 -1 -2 0 -3 -1 -3 2 1 1 1 1 1 1 2 1 -1 1 -2 -2 0 -1 -1 -1 -2 -1 -1 0 2 -1 -2 0 -2 -1 -2 -1 -1 -1 -1 -2 -2 -1 -1 -1 -4 -1 -1 -1 -1 -1 -4 0 -2 -1 -2 -1 -1 1 -2 1 -1 0 -3 2 0 2 1 2 0 1 1 3 0 0 -2 1 2 3 1 1 0 1 1 3 1 1 1 1 1 2 0 2 1 3 1 3 1 2 -1 2 1 1 -2 2 -1 1 2 2 0 -1 -1 1 -1 1 -1 4 0 2 -1 2 1 2 -1 2 -2 1 -1 1 1 3 1 1 -2 1 -2 2 1 1 2 3 1 1 2 -1 2 0 3 0 1 0 3 0 3 0 2 0 2 0 3 0 2 1 2 0 3 -1 -1 0 -2 -3 -1 2 -1 -1 -1 -1 2 1 1 -2 0 -1 3 -1 2 1 1 0 2 -1 2 0 2 -1 2 -1 1 0 1 1 0 1 1 0 2 0 2 0 2z"/><path d="M854 847l0 2 -1 1 -1 -1 -1 1 -1 -1 1 -1 1 -1 1 -1 1 1z"/><path d="M855 843l1 1 -2 1 0 -1 1 -2 0 1z"/><path d="M869 832l-1 2 -1 -1 1 -2 1 0z"/><path d="M811 791l-2 1 -1 -1 2 0z"/><path d="M869 788l2 -1 -1 2 -2 -1z"/><path d="M807 786l-1 3 -1 -1 1 -2z"/><path d="M809 787l-1 -1 1 -1 0 2z"/><path d="M874 785l0 2 -1 -1 -2 1 -3 0 -2 -1 2 -2 2 0 3 -1 1 1 0 1z"/><path d="M867 780l-1 -1 -1 -1 -1 -2 -2 -2 2 -1 1 -1 4 3 1 1 2 2 0 2 0 2 -1 -1 -2 2 -2 -1 0 -1z"/><path d="M794 775l0 2 -1 1 -3 2 -1 -2 0 -3 0 -2 0 -2 2 -1 0 -2 2 1 1 1 0 3 0 1z"/><path d="M841 751l-2 1 -1 -1 2 0 1 0z"/><path d="M817 746l-2 0 -2 0 1 -1 2 0z"/><path d="M819 742l1 1 -2 1 -2 0 0 -3 2 1z"/><path d="M682 689l0 2 -2 0 -2 0 -3 -1 -1 1 -1 1 -1 2 -2 1 -2 -2 -2 0 -2 1 -2 0 -3 0 -2 0 -2 -1 -2 -2 0 -1 1 -2 2 0 1 -1 6 -1 4 -1 1 -1 1 1 3 -1 1 2 -1 1 2 1 2 0 1 1 1 -1 1 0 2 0 1 1z"/><path d="M646 672l-2 0 2 0z"/><path d="M616 645l-2 2 1 -2z"/><path d="M597 616l1 -1 -1 1z"/><path d="M1072 599l2 1 -1 -1z"/><path d="M969 513l0 2 -1 5 -1 -2 0 -2 1 -2 0 -1z"/><path d="M967 512l0 -2 -1 -2 0 -2 2 -1 0 3 -1 2 1 2z"/><path d="M218 485l-2 -1 -1 -1 -1 -3 -1 -1 0 -2 -1 -1 0 -2 2 1 1 2 0 2 1 2 1 3 1 1z"/><path d="M215 468l0 -2 0 -2 1 2 -1 2z"/><path d="M217 461l-1 1 0 -4 0 2 1 1z"/><path d="M967 462l-2 6 -2 4 -2 5 1 1 -2 0 -1 -3 0 -1 1 -2 1 -2 0 -2 -1 -2 2 -1 2 -1 0 -2 0 -2 -2 -1 1 -2 2 -1 0 4 1 2z"/><path d="M927 435l1 1 -3 -1 -1 -1 -1 -2 0 -2 1 1 2 0 1 2 0 1z"/><path d="M914 405l-1 2 0 -2 1 0z"/><path d="M902 401l0 2 0 1 -1 -2 1 -1z"/><path d="M260 373l-1 2 -1 1 -1 -1 1 -3 2 1z"/><path d="M887 367l-1 2 1 -2z"/><path d="M886 364l-1 0 0 -3 1 3z"/><path d="M875 357l0 2 0 -2z"/><path d="M835 324l-1 2 -1 -2 -2 -2 2 0 2 -1 0 2 1 1z"/><path d="M709 296l-1 1 -1 1 0 -3 2 0z"/><path d="M712 283l0 2 -3 0 -1 1 -1 1 -1 1 -3 1 -1 -1 0 2 0 -3 0 -1 1 -1 2 -1 3 -1 1 -1 2 1 1 0z"/><path d="M655 267l1 1 -2 0 1 -1z"/><path d="M658 266l-1 2 -1 -1 1 0z"/><path d="M663 269l0 2 -2 -1 -1 -2 1 -2 2 1 0 1z"/><path d="M654 264l-1 2 -1 -2 2 0z"/><path d="M659 265l0 -1 0 1z"/><path d="M427 258l-1 2 1 -2z"/><path d="M430 260l1 1 -2 1 -1 -1 0 -2 2 1z"/><path d="M638 250l-1 1 1 -1z"/><path d="M441 242l0 2 -1 2 -1 -2 1 -1 1 -1z"/><path d="M648 226l-1 2 -1 -1 -1 1 0 -2 1 -1 2 1z"/><path d="M660 236l0 2 -2 0 -2 -1 -1 1 -4 -1 -2 0 1 -1 1 -2 -1 -2 1 -2 0 -2 2 0 1 -1 0 -1 1 -1 1 2 2 2 0 -2 2 1 -1 2 -2 1 0 2 -1 1 1 2 2 0 1 -1 0 1z"/><path d="M645 220l-1 -1 2 1 0 2 -1 -2z"/><path d="M648 190l-1 1 -2 1 2 -2 1 0z"/><path d="M651 188l1 -2 0 2z"/><path d="M654 185l-2 1 2 -1z"/><path d="M642 184l1 -1 -1 1z"/><path d="M580 183l-1 1 -1 -1 2 0z"/><path d="M651 180l-1 2 -2 0 -2 1 1 -1 3 -1 1 -1z"/><path d="M541 184l1 1 -1 2 -3 -1 -1 -1 -2 1 -2 0 -2 0 1 -2 3 -1 -1 -2 0 -2 2 -3 1 0 1 2 0 2 1 1 0 3 2 0z"/><path d="M559 178l0 1 -1 2 -3 2 -1 1 -3 2 -2 3 -2 -1 -1 -1 -2 -1 -2 -2 -1 -1 -1 -2 -1 -1 -1 -3 0 -2 0 -3 2 3 2 1 -1 1 2 -1 1 2 1 -1 2 -1 2 0 2 -1 2 1 0 1 0 -2 1 -2 1 1 3 1 0 2 1 1z"/><path d="M657 170l-1 2 -1 2 0 1 -1 2 -2 1 1 -1 1 -3 1 -1 1 -2 0 -1z"/><path d="M577 172l0 -2 2 -1 0 2 0 1 1 2 -1 2 -1 -2 -1 -1z"/><path d="M759 162l-1 2 -1 -1 0 -2 2 1z"/><path d="M760 151l1 1 -1 2 -2 -1 1 -2 1 0z"/><path d="M758 150l0 2 -2 -1 1 -2 1 1z"/><path d="M841 331l-1 -1 1 1z"/><path d="M769 135l-1 1 -2 0 1 -1 2 0z"/></g></svg>