<svg version="1.1" xmlns="http://www.w3.org/2000/svg" viewBox="0 0 1144 730">
<path d="M0 0 C1.48 -0 2.96 -0.01 4.43 -0.01 C8.47 -0.03 12.51 -0.02 16.55 -0.01 C20.95 -0 25.35 -0.02 29.75 -0.02 C37.46 -0.04 45.17 -0.04 52.88 -0.03 C64.34 -0.02 75.8 -0.03 87.26 -0.04 C107.74 -0.06 128.21 -0.06 148.68 -0.06 C166.6 -0.05 184.52 -0.05 202.44 -0.06 C204.84 -0.06 207.24 -0.06 209.65 -0.06 C213.27 -0.06 216.89 -0.06 220.52 -0.07 C254.2 -0.08 287.87 -0.08 321.55 -0.07 C322.82 -0.07 324.09 -0.07 325.4 -0.07 C335.71 -0.07 346.02 -0.07 356.32 -0.06 C396.53 -0.05 436.74 -0.06 476.95 -0.09 C522.13 -0.11 567.31 -0.13 612.5 -0.12 C617.31 -0.12 622.13 -0.12 626.95 -0.12 C628.14 -0.12 629.32 -0.12 630.54 -0.12 C648.45 -0.11 666.35 -0.12 684.26 -0.13 C704.62 -0.15 724.98 -0.15 745.34 -0.13 C756.74 -0.12 768.13 -0.12 779.52 -0.14 C787.13 -0.15 794.75 -0.15 802.36 -0.13 C806.7 -0.12 811.03 -0.12 815.37 -0.14 C848.43 -0.25 848.43 -0.25 861.89 4.38 C862.54 4.6 863.19 4.82 863.86 5.04 C889.65 13.83 909.71 32.09 921.98 56.39 C924.93 62.8 927.04 69.59 928.89 76.38 C929.07 77.03 929.26 77.68 929.44 78.35 C931.51 87.06 931.18 95.93 931.17 104.82 C931.17 106.7 931.18 108.59 931.18 110.47 C931.2 115.63 931.2 120.78 931.2 125.94 C931.2 131.51 931.21 137.08 931.23 142.64 C931.25 154.81 931.26 166.98 931.26 179.15 C931.26 186.76 931.27 194.37 931.28 201.97 C931.3 223.05 931.31 244.13 931.32 265.21 C931.32 265.55 931.32 265.55 931.32 267.25 C931.32 269.98 931.32 272.71 931.32 275.44 C931.32 277.5 931.32 279.55 931.32 281.6 C931.32 282.28 931.32 282.96 931.32 283.66 C931.32 304.97 931.34 326.28 931.38 347.59 C931.42 371.56 931.45 395.53 931.45 419.5 C931.45 432.18 931.45 444.86 931.48 457.54 C931.51 468.34 931.52 479.14 931.5 489.94 C931.49 495.45 931.49 500.95 931.52 506.45 C931.68 548.75 931.68 548.75 925.89 566.38 C925.5 567.69 925.11 568.99 924.73 570.3 C923.79 573.41 922.75 576.45 921.64 579.51 C921.26 580.59 920.87 581.68 920.48 582.8 C916.82 592.93 912.58 602.69 907.89 612.38 C907.44 613.33 906.99 614.27 906.52 615.25 C891.66 646.2 873.47 674.36 849.89 699.38 C849.15 700.17 848.41 700.97 847.65 701.79 C832.91 717.12 813.78 729.88 792.02 730.69 C786.49 730.62 782.23 729.97 777.89 726.38 C772.09 719.56 771.76 712.43 771.68 703.83 C771.65 702.14 771.63 700.46 771.6 698.77 C771.56 696.15 771.52 693.54 771.49 690.92 C771.27 671.15 769.78 651.45 755.24 636.4 C727.26 612.25 685.12 615.22 650.57 615.25 C646.43 615.25 642.3 615.25 638.16 615.24 C630.93 615.24 623.69 615.24 616.46 615.24 C605.7 615.24 594.94 615.24 584.18 615.23 C567.19 615.22 550.19 615.22 533.2 615.21 C506.22 615.21 479.24 615.19 452.27 615.17 C446.52 615.17 440.77 615.16 435.03 615.16 C433.88 615.16 432.74 615.16 431.55 615.16 C429.23 615.16 426.91 615.16 424.59 615.15 C422.26 615.15 419.93 615.15 417.6 615.15 C390.15 615.13 362.7 615.11 335.25 615.1 C334.05 615.1 332.85 615.1 331.62 615.1 C292.67 615.07 253.72 615.06 214.77 615.05 C174.69 615.05 134.62 615.02 94.55 614.99 C88.89 614.98 83.23 614.98 77.57 614.97 C76.46 614.97 75.34 614.97 74.19 614.97 C56.28 614.96 38.37 614.95 20.45 614.96 C2.45 614.96 -15.55 614.95 -33.55 614.93 C-44.24 614.91 -54.93 614.91 -65.62 614.92 C-72.77 614.93 -79.92 614.93 -87.06 614.91 C-91.13 614.9 -95.2 614.89 -99.27 614.91 C-130.36 615 -130.36 615 -144.11 610.38 C-144.76 610.16 -145.41 609.94 -146.08 609.72 C-171.87 600.93 -191.93 582.67 -204.19 558.37 C-210.63 544.39 -213.41 530.16 -213.37 514.84 C-213.38 513.49 -213.38 512.14 -213.39 510.79 C-213.4 507.11 -213.4 503.42 -213.4 499.74 C-213.4 495.76 -213.41 491.77 -213.42 487.79 C-213.43 479.99 -213.44 472.2 -213.44 464.4 C-213.44 458.06 -213.45 451.72 -213.45 445.38 C-213.47 427.37 -213.48 409.37 -213.48 391.36 C-213.48 390.39 -213.48 389.42 -213.48 388.42 C-213.48 387.45 -213.48 386.48 -213.48 385.48 C-213.48 369.76 -213.49 354.04 -213.52 338.32 C-213.55 322.15 -213.57 305.98 -213.56 289.82 C-213.56 280.75 -213.57 271.68 -213.59 262.62 C-213.61 254.89 -213.61 247.17 -213.6 239.45 C-213.59 235.52 -213.59 231.58 -213.61 227.65 C-213.74 196 -208.43 168.37 -185.62 144.81 C-183.99 143.19 -182.35 141.59 -180.7 140 C-178.7 137.99 -176.88 135.97 -175.05 133.82 C-170.74 128.89 -166.13 124.3 -161.48 119.69 C-160.58 118.79 -159.67 117.89 -158.74 116.96 C-155.38 113.61 -152.01 110.27 -148.65 106.93 C-145.34 103.65 -142.04 100.36 -138.73 97.07 C-137.87 96.22 -137.01 95.36 -136.12 94.49 C-131.88 90.25 -127.81 85.95 -123.91 81.41 C-120.35 77.4 -116.5 73.68 -112.7 69.91 C-112.26 69.47 -112.26 69.47 -110.02 67.25 C-106.75 63.98 -103.47 60.73 -100.18 57.47 C-96.96 54.27 -93.73 51.06 -90.51 47.85 C-89.67 47.02 -88.83 46.19 -87.97 45.33 C-83.66 41.04 -79.5 36.68 -75.55 32.05 C-56.7 10.21 -28.25 -0.15 0 0 Z " fill="#6239FF" transform="translate(213.10612201690674,-0.38031673431396484)"/>
<path d="M0 0 C2.48 2.21 4.78 4.53 7 7 C10.08 5.63 12.07 4.06 14.44 1.69 C21.3 -4.46 30.82 -7.75 40 -8 C40.97 -8.05 41.95 -8.1 42.95 -8.15 C56.24 -8.55 67.97 -5.58 78.06 3.31 C81.59 7.06 84.01 11.16 86.38 15.69 C86.54 16 86.54 16 87.39 17.57 C92.98 29.01 92.28 42.26 92.2 54.68 C92.19 56.34 92.19 58 92.19 59.66 C92.18 64 92.16 68.33 92.14 72.66 C92.11 77.88 92.1 83.1 92.09 88.32 C92.07 96.22 92.03 104.11 92 112 C80.12 112 68.24 112 56 112 C55.96 106.9 55.93 101.79 55.89 96.53 C55.86 93.29 55.83 90.04 55.79 86.8 C55.74 81.65 55.69 76.51 55.65 71.37 C55.63 67.22 55.59 63.07 55.54 58.92 C55.52 57.34 55.51 55.76 55.5 54.18 C55.45 43.13 55.12 34.32 47 26 C41.92 22.74 35.78 23.2 30 24 C25.65 26.08 23.13 29.24 21.12 33.56 C19.4 38.82 18.86 43.45 18.79 48.99 C18.78 49.68 18.77 50.36 18.76 51.06 C18.73 53.31 18.71 55.56 18.68 57.8 C18.66 59.36 18.64 60.93 18.62 62.49 C18.57 66.59 18.52 70.69 18.47 74.79 C18.41 79.72 18.34 84.65 18.28 89.57 C18.18 97.05 18.09 104.52 18 112 C6.12 112 -5.76 112 -18 112 C-18.02 109.41 -18.02 109.41 -18.11 96.31 C-18.14 93.02 -18.17 89.73 -18.21 86.44 C-18.26 81.23 -18.31 76.01 -18.35 70.79 C-18.37 66.58 -18.41 62.38 -18.46 58.17 C-18.48 56.57 -18.49 54.97 -18.5 53.37 C-18.58 35.1 -18.58 35.1 -23.72 28.94 C-24.01 28.71 -24.01 28.71 -25.5 27.56 C-26.09 27.09 -26.68 26.62 -27.28 26.13 C-31.98 23.04 -37.61 23.48 -43 24 C-48.6 26.28 -50.49 30.15 -53.02 35.37 C-54.92 40.46 -55.14 45.53 -55.21 50.92 C-55.22 51.59 -55.23 52.25 -55.24 52.94 C-55.27 55.11 -55.29 57.29 -55.32 59.46 C-55.34 60.98 -55.36 62.49 -55.38 64.01 C-55.43 67.98 -55.48 71.96 -55.53 75.93 C-55.59 80.71 -55.66 85.49 -55.72 90.27 C-55.82 97.51 -55.91 104.76 -56 112 C-67.55 112 -79.1 112 -91 112 C-91 73.39 -91 34.78 -91 -5 C-79.45 -5 -67.9 -5 -56 -5 C-56 -1.7 -56 1.6 -56 5 C-55.34 5 -54.68 5 -54 5 C-53.87 4.7 -53.87 4.7 -53.24 3.2 C-50.44 -1.77 -44.39 -5.44 -39 -7 C-25.89 -10.2 -11 -7.92 0 0 Z " fill="#FFFFFF" transform="translate(488,389)"/>
<path d="M0 0 C2.48 2.21 4.78 4.53 7 7 C10.11 5.61 12.24 3.97 14.69 1.62 C24.51 -7.08 37.01 -8.51 49.77 -8.25 C61.54 -7.35 72.16 -2.93 80.34 5.75 C88.92 17.36 92.14 30.57 92.11 44.79 C92.11 45.53 92.11 46.26 92.11 47.01 C92.11 49.4 92.11 51.8 92.1 54.19 C92.1 55.86 92.09 57.53 92.09 59.2 C92.09 63.57 92.08 67.94 92.07 72.32 C92.06 77.58 92.05 82.83 92.05 88.09 C92.04 96.06 92.02 104.03 92 112 C80.12 112 68.24 112 56 112 C55.96 106.9 55.93 101.79 55.89 96.53 C55.86 93.29 55.83 90.04 55.79 86.8 C55.74 81.65 55.69 76.51 55.65 71.37 C55.63 67.22 55.59 63.07 55.54 58.92 C55.52 57.34 55.51 55.76 55.5 54.18 C55.45 43.13 55.12 34.32 47 26 C43.56 23.76 40.56 23.7 36.5 23.69 C35.38 23.67 34.25 23.65 33.09 23.64 C29.72 24.03 28.52 24.83 26 27 C25.34 27 24.68 27 24 27 C23.29 28.65 22.64 30.32 22 32 C21.75 32.63 21.5 33.27 21.25 33.92 C18.45 41.92 18.52 49.92 18.49 58.29 C18.47 59.84 18.45 61.4 18.43 62.95 C18.39 67.01 18.36 71.08 18.33 75.14 C18.3 80.03 18.24 84.91 18.19 89.8 C18.11 97.2 18.06 104.6 18 112 C6.12 112 -5.76 112 -18 112 C-18.04 106.91 -18.07 101.81 -18.11 96.57 C-18.14 93.33 -18.17 90.09 -18.21 86.85 C-18.26 81.71 -18.31 76.58 -18.35 71.44 C-18.37 67.3 -18.41 63.15 -18.46 59.01 C-18.48 57.44 -18.49 55.86 -18.5 54.29 C-18.58 35.2 -18.58 35.2 -23.75 28.84 C-24.35 28.4 -24.95 27.96 -25.56 27.5 C-26.16 27.04 -26.76 26.57 -27.38 26.09 C-32.12 22.9 -37.48 23.52 -43 24 C-48.62 26.25 -50.49 30.15 -53.02 35.37 C-54.92 40.46 -55.14 45.53 -55.21 50.92 C-55.22 51.59 -55.23 52.25 -55.24 52.94 C-55.27 55.11 -55.29 57.29 -55.32 59.46 C-55.34 60.98 -55.36 62.49 -55.38 64.01 C-55.43 67.98 -55.48 71.96 -55.53 75.93 C-55.59 80.71 -55.66 85.49 -55.72 90.27 C-55.82 97.51 -55.91 104.76 -56 112 C-67.55 112 -79.1 112 -91 112 C-91 73.39 -91 34.78 -91 -5 C-79.45 -5 -67.9 -5 -56 -5 C-55.83 -3.35 -55.83 -3.35 -55 5 C-54.34 4.11 -53.68 3.23 -53 2.31 C-40.24 -12.85 -14.97 -10.77 0 0 Z " fill="#FFFFFF" transform="translate(488,239)"/>
<path d="M0 0 C2.36 2.2 2.36 2.2 4 4 C4.33 1.03 4.66 -1.94 5 -5 C16.88 -5 28.76 -5 41 -5 C41 33.61 41 72.22 41 112 C29.12 112 17.24 112 5 112 C4.84 110.51 4.84 110.51 4 103 C3.47 103.46 2.93 103.92 2.38 104.39 C-8.12 113.04 -18.54 115.81 -32 115 C-48.58 113.05 -61.17 107.34 -72.22 94.4 C-84.47 78.51 -86.4 61.19 -84.72 41.79 C-82.37 26.51 -74.85 12.91 -63 3 C-43.73 -10.36 -20.24 -12.24 0 0 Z " fill="#FFFFFF" transform="translate(673,389)"/>
<path d="M0 0 C13.64 10.28 21.67 24.07 24.69 40.81 C25.43 48.24 25.46 55.69 24 63 C-4.05 63.33 -32.1 63.66 -61 64 C-54.39 78.88 -54.39 78.88 -45.79 82.3 C-37.44 84.39 -28.58 84.12 -20.83 80.27 C-19 79 -19 79 -17.4 76.95 C-14.01 74.2 -10.9 74.5 -6.73 74.61 C-5.94 74.62 -5.15 74.62 -4.33 74.63 C-1.8 74.65 0.72 74.7 3.25 74.75 C4.97 74.77 6.68 74.79 8.4 74.8 C12.6 74.85 16.8 74.92 21 75 C18.87 86.89 10.66 95.99 0.94 102.77 C-6.56 107.53 -14.43 109.75 -23 112 C-23.67 112.2 -24.34 112.4 -25.02 112.6 C-40.6 115.74 -58.7 111.77 -71.82 103.14 C-85.45 92.7 -94.51 79.2 -97 62 C-98.64 44.16 -95.8 26.74 -84.86 12.14 C-63.35 -12.71 -27.91 -17.45 0 0 Z " fill="#FFFFFF" transform="translate(193,241)"/>
<path d="M0 0 C10.32 8.58 14.86 19.91 17 33 C17.09 35.59 17.13 38.14 17.11 40.73 C17.11 41.49 17.11 42.25 17.11 43.04 C17.11 45.54 17.11 48.05 17.1 50.55 C17.1 52.29 17.09 54.03 17.09 55.78 C17.09 60.35 17.08 64.93 17.07 69.5 C17.06 75 17.05 80.49 17.05 85.98 C17.04 94.32 17.02 102.66 17 111 C5.45 111 -6.1 111 -18 111 C-18.05 106.2 -18.1 101.39 -18.15 96.44 C-18.18 93.38 -18.22 90.33 -18.26 87.27 C-18.32 82.42 -18.38 77.58 -18.42 72.73 C-18.46 68.82 -18.51 64.91 -18.56 61 C-18.58 59.52 -18.59 58.03 -18.6 56.54 C-18.77 35.93 -18.77 35.93 -23.81 29.62 C-24.29 29 -24.77 28.37 -25.27 27.73 C-29.44 23.56 -32.97 22.55 -38.81 22.5 C-45.09 22.66 -49.57 23.36 -54 28 C-58.61 34.51 -60.11 39.96 -60.21 47.88 C-60.22 48.56 -60.23 49.25 -60.24 49.95 C-60.27 52.2 -60.29 54.45 -60.32 56.7 C-60.34 58.27 -60.36 59.83 -60.38 61.39 C-60.43 65.5 -60.48 69.61 -60.53 73.72 C-60.59 78.66 -60.66 83.59 -60.72 88.53 C-60.82 96.02 -60.91 103.51 -61 111 C-72.88 111 -84.76 111 -97 111 C-97 72.39 -97 33.78 -97 -6 C-85.12 -6 -73.24 -6 -61 -6 C-60.84 -4.51 -60.84 -4.51 -60 3 C-59.47 2.54 -58.93 2.08 -58.38 1.61 C-41.53 -12.27 -17.72 -13.11 0 0 Z " fill="#FFFFFF" transform="translate(828,390)"/>
<path d="M0 0 C12.87 0 25.74 0 39 0 C44.62 13.49 44.62 13.49 46.32 18.53 C46.71 19.66 47.09 20.79 47.49 21.95 C47.88 23.12 48.28 24.29 48.69 25.5 C49.55 28.04 50.42 30.57 51.29 33.11 C51.51 33.75 51.73 34.39 51.95 35.06 C54.45 42.33 57.03 49.57 59.62 56.81 C60.06 58.03 60.5 59.26 60.95 60.52 C61.97 63.34 62.98 66.17 64 69 C65.74 66.39 66.67 64.43 67.69 61.52 C68.01 60.62 68.33 59.71 68.66 58.78 C69.01 57.8 69.35 56.82 69.7 55.8 C70.06 54.78 70.42 53.76 70.79 52.71 C71.95 49.43 73.1 46.15 74.25 42.88 C75.01 40.72 75.77 38.56 76.53 36.41 C82.1 20.59 82.1 20.59 84.85 12.69 C85.13 11.89 85.41 11.09 85.69 10.27 C86.21 8.8 86.72 7.34 87.22 5.87 C88.89 1.11 88.89 1.11 90 0 C92.74 -0.09 95.45 -0.12 98.19 -0.1 C99.01 -0.1 99.83 -0.09 100.68 -0.09 C103.3 -0.09 105.93 -0.08 108.56 -0.06 C110.34 -0.06 112.12 -0.05 113.9 -0.05 C118.26 -0.04 122.63 -0.02 127 0 C122.6 12.03 117.84 23.89 112.97 35.74 C110.74 41.18 108.51 46.63 106.29 52.07 C105.83 53.17 105.38 54.27 104.92 55.41 C100.8 65.49 96.71 75.59 92.62 85.69 C84.83 104.97 76.99 124.24 69.13 143.5 C68.9 144.06 68.9 144.06 67.74 146.91 C66.88 149.03 66.01 151.15 65.15 153.27 C64.76 154.22 64.37 155.17 63.98 156.14 C63.81 156.55 63.81 156.55 62.96 158.63 C61.97 161.08 60.98 163.54 60 166 C48.45 166 36.9 166 25 166 C27.01 159.31 29.07 153.03 31.76 146.63 C32.11 145.79 32.45 144.95 32.81 144.08 C33.91 141.43 35.02 138.78 36.12 136.12 C37.24 133.45 38.35 130.78 39.46 128.1 C40.14 126.45 40.83 124.8 41.52 123.14 C41.83 122.39 42.15 121.65 42.47 120.88 C42.74 120.22 43.01 119.57 43.29 118.89 C44.93 114.5 45.08 112.38 43.3 107.96 C43.11 107.48 43.11 107.48 42.13 105.01 C41.72 104 41.3 102.98 40.88 101.94 C40.48 100.95 40.09 99.96 39.69 98.95 C37.74 94.1 35.71 89.31 33.52 84.57 C30.71 78.47 28.29 72.25 25.88 66 C24.91 63.52 23.94 61.04 22.97 58.55 C22.72 57.93 22.48 57.3 22.22 56.65 C19.66 50.12 17.03 43.62 14.38 37.12 C14.15 36.57 14.15 36.57 13.01 33.78 C10.79 28.35 8.55 22.92 6.31 17.49 C5.89 16.47 5.47 15.44 5.03 14.39 C4.24 12.47 3.44 10.55 2.64 8.62 C2.29 7.78 1.94 6.93 1.58 6.06 C1.27 5.32 0.97 4.58 0.65 3.82 C0 2 0 2 0 0 Z " fill="#FFFFFF" transform="translate(843,384)"/>
<path d="M0 0 C6.8 5.65 12.99 11.98 15.31 20.75 C15.34 23.08 15.34 25.42 15.31 27.75 C10.54 27.9 5.78 28.01 1.01 28.08 C-0.62 28.11 -2.24 28.15 -3.86 28.2 C-6.19 28.28 -8.52 28.31 -10.86 28.34 C-11.58 28.37 -12.31 28.4 -13.05 28.43 C-15.11 28.43 -15.11 28.43 -18.69 27.75 C-21.07 24.8 -21.07 24.8 -22.69 21.75 C-28.78 16.78 -36.11 16.04 -43.69 16.75 C-48.14 17.83 -51.87 19.2 -55.69 21.75 C-56.34 26.89 -56.34 26.89 -54.48 29.32 C-46.68 35.53 -32.82 36.17 -23.33 37.82 C-8.82 40.43 4.75 44.21 13.94 56.41 C18.63 64.41 18.61 74.82 16.66 83.73 C12.66 94.79 3.59 102.33 -6.83 107.23 C-26.28 115.12 -47.77 114.79 -67.36 107.29 C-79.05 101.88 -86.21 94.11 -91.02 82.34 C-91.69 79.75 -91.69 79.75 -91.69 72.75 C-80.47 72.75 -69.25 72.75 -57.69 72.75 C-57.03 73.9 -57.03 73.9 -53.69 79.75 C-47.43 84.6 -39.36 85.46 -31.69 84.75 C-28.28 83.95 -24.99 82.9 -21.69 81.75 C-20.7 81.42 -19.71 81.09 -18.69 80.75 C-17.88 77.5 -17.88 77.5 -17.69 73.75 C-23.81 65.81 -38.78 64.86 -48 63.38 C-62.8 60.77 -76.63 57.95 -86.69 45.75 C-88.41 42.84 -89.66 39.97 -90.69 36.75 C-90.85 36.25 -90.85 36.25 -91.69 33.75 C-92.49 23.24 -90.38 14.19 -83.75 5.81 C-64.75 -15.15 -22.2 -16.39 0 0 Z " fill="#FFFFFF" transform="translate(315.6875,241.25)"/>
<path d="M0 0 C11.88 0 23.76 0 36 0 C36 38.94 36 77.88 36 118 C24.12 118 12.24 118 0 118 C0 79.06 0 40.12 0 0 Z " fill="#FFFFFF" transform="translate(344,234)"/>
<path d="M0 0 C6.49 4.49 10.89 10.52 12.48 18.36 C13.74 28.94 13.36 38 7.25 46.96 C2.25 53.21 -2.96 57.21 -11.02 58.22 C-20.31 58.73 -27.76 57.33 -35.04 51.24 C-41.59 44.51 -43.62 35.85 -43.74 26.68 C-43.6 16.87 -40.91 9.61 -34.17 2.44 C-24.39 -6.12 -11.07 -6.2 0 0 Z " fill="#6239FF" transform="translate(666.23828125,415.25390625)"/>
<path d="M0 0 C5.57 3.57 8.2 7.75 10 14 C11.03 20.83 9.6 26.93 5.9 32.73 C2.48 37.2 -1.02 39.4 -6.51 40.5 C-14.32 41.54 -20.08 40.35 -26.81 36.31 C-31.84 30.99 -33.27 26.34 -33.5 19 C-33.3 13.23 -32.9 8.45 -29 4 C-19.78 -3.57 -10.89 -4.99 0 0 Z " fill="#FFFFFF" transform="translate(374,180)"/>
<path d="M0 0 C5.06 3.85 7.86 8.92 10.06 14.82 C10.06 15.81 10.06 16.8 10.06 17.82 C-7.1 17.82 -24.26 17.82 -41.94 17.82 C-40.43 10.3 -37.98 4.84 -31.84 0.07 C-22.19 -6.28 -9.81 -5.99 0 0 Z " fill="#6239FF" transform="translate(172.9375,263.18359375)"/>
</svg>
