<svg version="1.1" xmlns="http://www.w3.org/2000/svg" viewBox="0 0 637 730">
<path d="M0 0 C1.45 -0 2.9 -0.01 4.35 -0.02 C8.3 -0.03 12.25 -0.03 16.19 -0.02 C20.47 -0.01 24.74 -0.03 29.01 -0.04 C37.37 -0.05 45.72 -0.06 54.08 -0.05 C60.88 -0.05 67.67 -0.05 74.47 -0.05 C75.44 -0.05 76.41 -0.05 77.41 -0.05 C79.38 -0.06 81.35 -0.06 83.32 -0.06 C101.78 -0.07 120.23 -0.07 138.68 -0.06 C155.54 -0.05 172.39 -0.06 189.24 -0.08 C206.58 -0.11 223.91 -0.12 241.25 -0.11 C250.97 -0.11 260.69 -0.11 270.41 -0.13 C278.69 -0.14 286.96 -0.14 295.24 -0.12 C299.45 -0.12 303.67 -0.11 307.88 -0.13 C339.99 -0.24 368.5 4.04 392.71 27.03 C393.1 27.42 393.1 27.42 395.07 29.39 C395.91 30.21 396.74 31.03 397.59 31.87 C418.16 53.23 424.74 80.88 424.58 109.74 C424.59 111.6 424.59 113.46 424.6 115.32 C424.62 120.37 424.61 125.41 424.6 130.46 C424.59 135.93 424.6 141.39 424.61 146.86 C424.63 157.55 424.63 168.23 424.62 178.92 C424.61 187.61 424.61 196.3 424.61 204.99 C424.61 206.23 424.61 207.47 424.61 208.75 C424.61 211.27 424.61 213.79 424.62 216.31 C424.63 239.23 424.61 262.15 424.59 285.07 C424.57 305.95 424.58 326.84 424.6 347.72 C424.62 371.23 424.63 394.74 424.61 418.25 C424.61 420.77 424.61 423.28 424.61 425.79 C424.61 427.02 424.61 428.26 424.61 429.53 C424.6 438.2 424.61 446.87 424.62 455.55 C424.63 466.13 424.63 476.7 424.61 487.28 C424.6 492.67 424.59 498.06 424.6 503.45 C424.62 508.4 424.61 513.35 424.59 518.29 C424.58 520.07 424.59 521.85 424.6 523.62 C424.9 583.07 388.7 647.99 350.07 691.39 C349.59 691.94 349.11 692.49 348.61 693.06 C341.97 700.59 335.13 707.32 327.07 713.39 C326.28 714 325.48 714.61 324.66 715.25 C311.33 725.07 295.96 732.17 279.07 730.39 C273.96 729.18 270.34 726.49 267.07 722.39 C265.18 717.02 264.67 712.01 264.45 706.39 C264.41 705.55 264.37 704.72 264.33 703.86 C264.11 698.84 264.07 693.85 264.14 688.83 C264.24 670.03 261.71 651.39 248.32 637.14 C222.15 612.5 179.07 615.23 145.87 615.25 C142.24 615.25 138.6 615.24 134.97 615.24 C128.69 615.23 122.41 615.22 116.13 615.22 C106.19 615.21 96.25 615.2 86.31 615.18 C82.9 615.17 79.49 615.17 76.07 615.16 C75.22 615.16 74.37 615.16 73.49 615.15 C63.82 615.14 54.15 615.12 44.48 615.1 C43.59 615.1 42.71 615.1 41.8 615.1 C27.49 615.08 13.18 615.07 -1.13 615.06 C-15.87 615.05 -30.61 615.03 -45.35 614.99 C-54.42 614.97 -63.48 614.96 -72.55 614.97 C-78.76 614.97 -84.98 614.96 -91.2 614.94 C-94.78 614.92 -98.35 614.92 -101.93 614.93 C-133.76 615.02 -161.78 608.43 -185.03 585.45 C-203.68 566.18 -213.26 541.43 -213.19 514.85 C-213.2 513.5 -213.2 512.15 -213.21 510.8 C-213.22 507.11 -213.22 503.43 -213.22 499.75 C-213.22 495.76 -213.23 491.78 -213.24 487.8 C-213.25 480 -213.26 472.21 -213.26 464.41 C-213.26 458.07 -213.26 451.73 -213.27 445.39 C-213.29 427.38 -213.3 409.37 -213.3 391.37 C-213.3 390.4 -213.3 389.43 -213.3 388.43 C-213.3 387.46 -213.3 386.49 -213.3 385.49 C-213.3 369.77 -213.31 354.05 -213.34 338.33 C-213.37 322.16 -213.39 305.99 -213.38 289.82 C-213.38 280.76 -213.39 271.69 -213.41 262.62 C-213.43 254.9 -213.43 247.18 -213.42 239.46 C-213.41 235.53 -213.41 231.59 -213.43 227.66 C-213.56 196 -208.25 168.38 -185.44 144.82 C-183.81 143.2 -182.17 141.6 -180.52 140 C-178.52 137.99 -176.7 135.98 -174.87 133.83 C-170.56 128.9 -165.95 124.3 -161.3 119.7 C-160.39 118.8 -159.49 117.9 -158.56 116.97 C-155.2 113.62 -151.83 110.28 -148.47 106.94 C-145.16 103.65 -141.85 100.37 -138.55 97.08 C-137.69 96.22 -136.83 95.37 -135.94 94.49 C-131.69 90.26 -127.63 85.96 -123.73 81.41 C-120.17 77.41 -116.32 73.69 -112.52 69.92 C-112.08 69.48 -112.08 69.48 -109.84 67.25 C-106.57 63.99 -103.29 60.73 -100 57.48 C-96.78 54.27 -93.55 51.06 -90.33 47.86 C-89.49 47.03 -88.65 46.2 -87.79 45.34 C-83.48 41.05 -79.32 36.68 -75.37 32.06 C-56.58 10.29 -28.18 -0.13 0 0 Z " fill="#6239FF" transform="translate(212.92572021484375,-0.3876800537109375)"/>
<path d="M0 0 C0.27 0.21 0.27 0.21 1.63 1.29 C15.36 12.26 26.1 24.87 35 40 C35.68 41.12 36.35 42.25 37.05 43.41 C47.35 61.15 52.36 80.81 55 101 C55.15 102.15 55.3 103.29 55.46 104.48 C55.75 107.33 55.91 110.14 56 113 C56.02 113.63 56.04 114.26 56.06 114.91 C56.41 127.16 55.23 138.71 54 151 C-16.62 151.33 -87.24 151.66 -160 152 C-154.27 170.64 -147.39 185.95 -130 196 C-111.76 204.88 -88.5 206.71 -69.09 200.26 C-49.14 192.11 -49.14 192.11 -44.93 183.92 C-42.41 181.42 -40.43 181.53 -36.98 181.5 C-36.57 181.51 -36.57 181.51 -34.49 181.55 C-34.06 181.55 -34.06 181.55 -31.86 181.54 C-28.98 181.55 -26.11 181.58 -23.24 181.61 C-21.25 181.62 -19.26 181.62 -17.26 181.63 C-12.02 181.64 -6.78 181.68 -1.54 181.73 C3.81 181.77 9.16 181.78 14.51 181.8 C25.01 181.85 35.5 181.92 46 182 C43.73 198.93 33.44 215.57 22 228 C21.53 228.52 21.05 229.03 20.56 229.57 C9.03 241.98 -4.08 251.09 -19 259 C-19.97 259.52 -20.93 260.04 -21.93 260.58 C-37.97 268.64 -56.27 272.77 -74 275 C-74.5 275.07 -74.5 275.07 -77 275.39 C-117.86 279.75 -161.18 270.5 -193.71 244.64 C-208.79 232.41 -220.38 218.91 -230 202 C-230.58 200.98 -231.17 199.96 -231.77 198.91 C-240.52 182.6 -245.93 164.37 -248 146 C-248.09 145.25 -248.18 144.5 -248.28 143.72 C-253.05 101.36 -243.77 57.4 -217.01 23.66 C-191.75 -7.33 -155.99 -26.27 -116.22 -30.73 C-75.66 -34.16 -32.29 -26.06 0 0 Z " fill="#FFFFFF" transform="translate(354,243)"/>
<path d="M0 0 C0.59 -0 0.59 -0 3.55 -0.02 C20.76 0.23 35.89 5.72 48.35 17.84 C57.77 28.29 63.02 40.86 65.75 54.5 C22.85 54.5 -20.05 54.5 -64.25 54.5 C-63.12 45.49 -63.12 45.49 -61.87 42.61 C-61.59 41.97 -61.31 41.33 -61.03 40.67 C-60.73 40.01 -60.43 39.36 -60.12 38.69 C-59.97 38.34 -59.97 38.34 -59.18 36.59 C-51.48 19.93 -40.65 9.19 -23.38 2.62 C-15.71 0.15 -8 0.03 0 0 Z " fill="#6239FF" transform="translate(257.25,282.5)"/>
</svg>
